<svg width="512" height="353" viewBox="0 0 512 353" fill="none" xmlns="http://www.w3.org/2000/svg">
<path d="M328.809 16.574C259.753 37.9368 174.799 20.0517 59.5393 64.7644C-85.3314 120.964 68.8028 292.917 158.901 312.671C257.838 334.363 586.456 286.676 496.233 136.305C447.65 55.3319 507.489 -38.7011 328.809 16.574Z" fill="#F1FFD6"/>
<path d="M280.618 43.6296H280.76L280.861 43.7278L294.467 56.8648L291.95 44.047L291.868 43.6296H292.293H293.535C303.494 43.6296 311.567 35.5564 311.567 25.5977C311.567 15.639 303.494 7.56582 293.535 7.56582H247.829C237.87 7.56582 229.797 15.639 229.797 25.5977C229.797 35.5564 237.87 43.6296 247.829 43.6296H280.618Z" fill="white" stroke="black" stroke-width="0.7"/>
<path d="M251.698 32.5742H255.982C260.086 32.5742 262.57 29.9642 262.57 26.2022C262.57 22.4222 259.978 19.7942 255.928 19.7942H251.698V32.5742ZM254.2 30.3242V22.0442H255.964C258.286 22.0442 259.924 23.8082 259.924 26.2022C259.924 28.5422 258.304 30.3242 255.82 30.3242H254.2ZM272.767 28.0922C272.767 25.5182 271.039 23.6462 268.555 23.6462C265.945 23.6462 264.091 25.4822 264.091 28.1642C264.091 30.9182 265.999 32.7362 268.699 32.7362C270.661 32.7362 271.795 32.0162 272.533 31.0622L271.003 29.6402C270.535 30.2162 269.851 30.6302 268.861 30.6302C267.673 30.6302 266.827 30.0002 266.539 28.9382H272.713C272.731 28.7942 272.767 28.3802 272.767 28.0922ZM268.537 25.6982C269.563 25.6982 270.193 26.3102 270.427 27.2462H266.557C266.827 26.2382 267.583 25.6982 268.537 25.6982ZM278.287 32.7362C279.439 32.7362 280.321 32.3042 280.933 31.5122L280.969 31.5302V32.5742H283.219V23.7722H280.861V24.7802L280.825 24.7982C280.195 24.0422 279.259 23.6462 278.233 23.6462C275.875 23.6462 274.093 25.5362 274.093 28.2002C274.093 30.9182 275.875 32.7362 278.287 32.7362ZM278.737 30.6122C277.405 30.6122 276.487 29.6222 276.487 28.2182C276.487 26.7062 277.459 25.7522 278.737 25.7522C279.997 25.7522 280.969 26.7962 280.969 28.2182C280.969 29.6582 279.943 30.6122 278.737 30.6122ZM285.568 32.5742H287.926V19.3262H285.568V32.5742ZM290.868 28.3802H292.632L293.028 19.3262H290.454L290.868 28.3802ZM291.732 32.7362C292.524 32.7362 293.19 32.0882 293.19 31.2782C293.19 30.4862 292.524 29.8382 291.732 29.8382C290.904 29.8382 290.238 30.4862 290.238 31.2782C290.238 32.0882 290.904 32.7362 291.732 32.7362Z" fill="#1C1C1C"/>
<path d="M178.129 200.393C178.129 176.441 197.546 157.024 221.498 157.024H454.998C478.95 157.024 498.367 176.441 498.367 200.393C498.367 224.345 478.95 243.762 454.998 243.762H221.498C197.546 243.762 178.129 224.345 178.129 200.393Z" fill="#F1FFD6" stroke="black" stroke-width="0.7"/>
<path d="M352.159 190.954L364.082 208.342H332.287L324.835 194.928L324.338 193.934L325.332 193.438L350.669 189.96L351.662 190.457L352.159 190.954Z" fill="white"/>
<path d="M364.082 208.423L352.349 191.058C351.928 190.434 351.191 190.1 350.444 190.193L325.323 193.333C324.617 193.421 324.226 194.199 324.577 194.818L332.287 208.423M348.184 196.499L335.764 198.486M352.159 201.467L339.739 203.455" stroke="black" stroke-width="0.7" stroke-linecap="round"/>
<path d="M459.966 200.97L458.191 221.33C457.956 224.028 456.209 226.438 453.583 227.1C450.465 227.886 447.109 228.154 443.167 227.126C440.697 226.482 439.129 224.169 438.907 221.626L437.113 201.058" fill="#618F00"/>
<path d="M459.966 200.97L458.191 221.33C457.956 224.028 456.209 226.438 453.583 227.1C450.465 227.886 447.109 228.154 443.167 227.126C440.697 226.482 439.129 224.169 438.907 221.626L437.113 201.058" stroke="black" stroke-width="0.7" stroke-linecap="round" stroke-linejoin="round"/>
<path d="M461.954 195.116C461.848 195.812 461.588 197.67 461.383 199.143C461.213 200.362 460.319 201.359 459.117 201.622C451.918 203.198 445.183 203.573 437.799 201.683C436.659 201.391 435.837 200.411 435.684 199.244L435.126 195.009" fill="#618F00"/>
<path d="M461.954 195.116C461.848 195.812 461.588 197.67 461.383 199.143C461.213 200.362 460.319 201.359 459.117 201.622C451.918 203.198 445.183 203.573 437.799 201.683C436.659 201.391 435.837 200.411 435.684 199.244L435.126 195.009" stroke="black" stroke-width="0.7" stroke-linecap="round" stroke-linejoin="round"/>
<path d="M456.963 193.023C460.007 193.432 461.954 194.059 461.954 194.762C461.954 195.996 455.948 196.996 448.54 196.996C441.132 196.996 435.126 195.996 435.126 194.762C435.126 194.058 437.077 193.431 440.127 193.021" stroke="black" stroke-width="0.7" stroke-linecap="round" stroke-linejoin="round"/>
<path fill-rule="evenodd" clip-rule="evenodd" d="M444.929 186.066C444.098 181.911 442.434 174.432 448.421 163.213C453.244 172.354 453.66 178.063 452.412 185.235" fill="white"/>
<path d="M444.929 186.066C444.098 181.911 442.434 174.432 448.421 163.213C453.244 172.354 453.66 178.063 452.412 185.235" stroke="black" stroke-width="0.7" stroke-linecap="round" stroke-linejoin="round"/>
<path fill-rule="evenodd" clip-rule="evenodd" d="M449.036 192.735C452.008 186.661 456.329 181.472 461.933 177.124C462.1 183.341 461.217 189.321 459.046 195.009" fill="white"/>
<path d="M449.036 192.735C452.008 186.661 456.329 181.472 461.933 177.124C462.1 183.341 461.217 189.321 459.046 195.009" stroke="black" stroke-width="0.7" stroke-linecap="round" stroke-linejoin="round"/>
<path fill-rule="evenodd" clip-rule="evenodd" d="M449.037 192.682C445.837 186.629 441.183 181.457 435.147 177.124C434.967 183.342 435.925 189.322 438.282 195.009" fill="white"/>
<path d="M449.037 192.682C445.837 186.629 441.183 181.457 435.147 177.124C434.967 183.342 435.925 189.322 438.282 195.009" stroke="black" stroke-width="0.7" stroke-linecap="round" stroke-linejoin="round"/>
<mask id="path-18-inside-1" fill="white">
<path d="M300.558 188.053C300.558 192.443 296.999 196.002 292.609 196.002C288.219 196.002 284.66 192.443 284.66 188.053C284.66 183.663 288.219 180.104 292.609 180.104C296.999 180.104 300.558 183.663 300.558 188.053ZM290.093 188.053C290.093 189.443 291.219 190.57 292.609 190.57C293.999 190.57 295.125 189.443 295.125 188.053C295.125 186.664 293.999 185.537 292.609 185.537C291.219 185.537 290.093 186.664 290.093 188.053Z"/>
</mask>
<path d="M300.558 188.053C300.558 192.443 296.999 196.002 292.609 196.002C288.219 196.002 284.66 192.443 284.66 188.053C284.66 183.663 288.219 180.104 292.609 180.104C296.999 180.104 300.558 183.663 300.558 188.053ZM290.093 188.053C290.093 189.443 291.219 190.57 292.609 190.57C293.999 190.57 295.125 189.443 295.125 188.053C295.125 186.664 293.999 185.537 292.609 185.537C291.219 185.537 290.093 186.664 290.093 188.053Z" fill="white" stroke="black" stroke-width="1.4" mask="url(#path-18-inside-1)"/>
<path d="M293.934 177.455L290.561 195.771C290.282 197.29 289.155 198.522 287.66 198.909C283.333 200.029 279.787 200.598 273.558 198.934C272.133 198.554 271.092 197.352 270.825 195.902L267.438 177.529" fill="white"/>
<path d="M293.934 177.455L290.561 195.771C290.282 197.29 289.155 198.522 287.66 198.909C283.333 200.029 279.787 200.598 273.558 198.934C272.133 198.554 271.092 197.352 270.825 195.902L267.438 177.529" stroke="black" stroke-width="0.7" stroke-linecap="round" stroke-linejoin="round"/>
<path d="M293.682 177.043C293.682 177.507 293.4 178.005 292.761 178.509C292.126 179.009 291.186 179.475 289.992 179.873C287.609 180.667 284.295 181.164 280.618 181.164C276.941 181.164 273.627 180.667 271.244 179.873C270.05 179.475 269.11 179.009 268.475 178.509C267.836 178.005 267.554 177.507 267.554 177.043C267.554 176.579 267.836 176.081 268.475 175.578C269.11 175.077 270.05 174.611 271.244 174.213C273.627 173.419 276.941 172.922 280.618 172.922C284.295 172.922 287.609 173.419 289.992 174.213C291.186 174.611 292.126 175.077 292.761 175.578C293.4 176.081 293.682 176.579 293.682 177.043Z" fill="#618F00" stroke="black" stroke-width="0.7"/>
<rect x="283.453" y="208.276" width="134.432" height="106.61" rx="14.65" fill="white" stroke="black" stroke-width="0.7"/>
<rect x="290.409" y="215.231" width="120.521" height="92.6998" rx="8.65" fill="white" stroke="black" stroke-width="0.7"/>
<circle cx="301.484" cy="273.719" r="3.12765" fill="#618F00" stroke="black" stroke-width="0.7"/>
<circle cx="310.427" cy="273.719" r="1.14042" fill="#618F00" stroke="black" stroke-width="0.7"/>
<circle cx="316.389" cy="273.719" r="1.14042" fill="#618F00" stroke="black" stroke-width="0.7"/>
<circle r="3.12765" transform="matrix(-1 0 0 1 397.865 273.719)" fill="white" stroke="black" stroke-width="0.7"/>
<circle r="1.14042" transform="matrix(-1 0 0 1 388.924 273.719)" fill="white" stroke="black" stroke-width="0.7"/>
<circle r="1.14042" transform="matrix(-1 0 0 1 382.962 273.719)" fill="white" stroke="black" stroke-width="0.7"/>
<path d="M302.097 240.713H304.227V231.938H307.182V230.063H299.187V231.938H302.097V240.713ZM307.396 240.713H309.361V237.323C309.361 236.213 310.006 235.403 311.221 235.403C311.341 235.403 311.536 235.403 311.746 235.418V233.273H311.596C310.741 233.273 309.946 233.693 309.391 234.443H309.361V233.378H307.396V240.713ZM315.606 240.848C316.566 240.848 317.301 240.488 317.811 239.828L317.841 239.843V240.713H319.716V233.378H317.751V234.218L317.721 234.233C317.196 233.603 316.416 233.273 315.561 233.273C313.596 233.273 312.111 234.848 312.111 237.068C312.111 239.333 313.596 240.848 315.606 240.848ZM315.981 239.078C314.871 239.078 314.106 238.253 314.106 237.083C314.106 235.823 314.916 235.028 315.981 235.028C317.031 235.028 317.841 235.898 317.841 237.083C317.841 238.283 316.986 239.078 315.981 239.078ZM324.659 240.848C326.219 240.848 327.224 240.293 327.854 239.513L326.579 238.283C326.189 238.763 325.604 239.078 324.854 239.078C323.684 239.078 322.874 238.268 322.874 237.053C322.874 235.853 323.669 235.028 324.854 235.028C325.544 235.028 326.144 235.328 326.534 235.808L327.824 234.593C327.059 233.693 325.859 233.273 324.719 233.273C322.454 233.273 320.879 234.803 320.879 237.068C320.879 239.318 322.469 240.848 324.659 240.848ZM328.908 240.713H330.858V238.718L331.848 237.638L333.663 240.713H335.868L333.243 236.318L335.808 233.378H333.498L330.888 236.453H330.858V229.673H328.908V240.713ZM343.278 240.848C344.238 240.848 344.973 240.488 345.483 239.828L345.513 239.843V240.713H347.388V233.378H345.423V234.218L345.393 234.233C344.868 233.603 344.088 233.273 343.233 233.273C341.268 233.273 339.783 234.848 339.783 237.068C339.783 239.333 341.268 240.848 343.278 240.848ZM343.653 239.078C342.543 239.078 341.778 238.253 341.778 237.083C341.778 235.823 342.588 235.028 343.653 235.028C344.703 235.028 345.513 235.898 345.513 237.083C345.513 238.283 344.658 239.078 343.653 239.078ZM348.956 240.713H350.921V237.038C350.921 235.718 351.581 235.028 352.571 235.028C353.486 235.028 353.981 235.463 353.981 236.858V240.713H355.946V236.363C355.946 234.113 354.851 233.273 353.291 233.273C352.376 233.273 351.536 233.633 350.951 234.323H350.921V233.378H348.956V240.713ZM360.564 240.848C361.554 240.848 362.319 240.473 362.829 239.813H362.844V240.713H364.719V229.673H362.769V234.233H362.739C362.199 233.603 361.419 233.273 360.519 233.273C358.554 233.273 357.054 234.848 357.054 237.068C357.054 239.333 358.539 240.848 360.564 240.848ZM360.924 239.078C359.829 239.078 359.049 238.253 359.049 237.083C359.049 235.823 359.874 235.028 360.924 235.028C362.049 235.028 362.844 235.898 362.844 237.083C362.844 238.283 362.004 239.078 360.924 239.078ZM372.191 240.848C373.181 240.848 373.661 240.638 374.126 240.383L373.631 238.808C373.301 238.973 372.941 239.063 372.701 239.063C372.236 239.063 372.071 238.763 372.071 238.118V235.013H374.051V233.378H372.071V230.783L370.106 230.993V233.378H369.236V235.013H370.106V238.403C370.106 240.053 370.931 240.848 372.191 240.848ZM375.119 240.713H377.084V237.323C377.084 236.213 377.729 235.403 378.944 235.403C379.064 235.403 379.259 235.403 379.469 235.418V233.273H379.319C378.464 233.273 377.669 233.693 377.114 234.443H377.084V233.378H375.119V240.713ZM383.329 240.848C384.289 240.848 385.024 240.488 385.534 239.828L385.564 239.843V240.713H387.439V233.378H385.474V234.218L385.444 234.233C384.919 233.603 384.139 233.273 383.284 233.273C381.319 233.273 379.834 234.848 379.834 237.068C379.834 239.333 381.319 240.848 383.329 240.848ZM383.704 239.078C382.594 239.078 381.829 238.253 381.829 237.083C381.829 235.823 382.639 235.028 383.704 235.028C384.754 235.028 385.564 235.898 385.564 237.083C385.564 238.283 384.709 239.078 383.704 239.078ZM392.381 240.848C393.941 240.848 394.946 240.293 395.576 239.513L394.301 238.283C393.911 238.763 393.326 239.078 392.576 239.078C391.406 239.078 390.596 238.268 390.596 237.053C390.596 235.853 391.391 235.028 392.576 235.028C393.266 235.028 393.866 235.328 394.256 235.808L395.546 234.593C394.781 233.693 393.581 233.273 392.441 233.273C390.176 233.273 388.601 234.803 388.601 237.068C388.601 239.318 390.191 240.848 392.381 240.848ZM403.456 236.978C403.456 234.833 402.016 233.273 399.946 233.273C397.771 233.273 396.226 234.803 396.226 237.038C396.226 239.333 397.816 240.848 400.066 240.848C401.701 240.848 402.646 240.248 403.261 239.453L401.986 238.268C401.596 238.748 401.026 239.093 400.201 239.093C399.211 239.093 398.506 238.568 398.266 237.683H403.411C403.426 237.563 403.456 237.218 403.456 236.978ZM399.931 234.983C400.786 234.983 401.311 235.493 401.506 236.273H398.281C398.506 235.433 399.136 234.983 399.931 234.983Z" fill="#1C1C1C"/>
<circle cx="414.26" cy="261.581" r="0.643615" fill="white" stroke="black" stroke-width="0.7"/>
<path fill-rule="evenodd" clip-rule="evenodd" d="M332.974 251.513C333.139 251.513 333.297 251.578 333.414 251.695C333.53 251.811 333.596 251.969 333.596 252.134V257.667C333.597 257.687 333.597 257.706 333.596 257.726V259.59C333.599 259.628 333.599 259.667 333.596 259.706V267.026C333.787 267.039 333.979 267.045 334.217 267.045H336.702V261.531C336.701 261.505 336.701 261.479 336.702 261.453C336.701 261.434 336.701 261.415 336.702 261.395V255.241C336.7 255.094 336.749 254.951 336.841 254.838C336.934 254.724 337.063 254.647 337.207 254.619C337.246 254.616 337.285 254.616 337.324 254.619H349.749C349.756 254.619 349.763 254.619 349.769 254.619C349.776 254.619 349.782 254.619 349.788 254.619H362.175C362.34 254.619 362.498 254.685 362.615 254.801C362.731 254.918 362.797 255.076 362.797 255.241V260.832H374.601C374.766 260.832 374.924 260.898 375.041 261.014C375.157 261.131 375.223 261.289 375.223 261.453V267.045H377.708C377.805 267.046 377.901 267.071 377.988 267.116C378.074 267.161 378.149 267.226 378.206 267.305C378.262 267.385 378.3 267.476 378.314 267.573C378.329 267.669 378.321 267.768 378.29 267.861L375.456 281.333H378.95C379.033 281.332 379.115 281.347 379.191 281.377C379.267 281.408 379.337 281.454 379.395 281.512C379.454 281.569 379.501 281.638 379.532 281.714C379.564 281.79 379.581 281.872 379.581 281.954C379.581 282.036 379.564 282.118 379.532 282.194C379.501 282.27 379.454 282.339 379.395 282.396C379.355 282.436 379.31 282.47 379.261 282.497C379.238 282.51 379.215 282.521 379.191 282.531C379.115 282.561 379.033 282.576 378.95 282.575H320.548C320.384 282.591 320.22 282.54 320.092 282.435C319.965 282.329 319.884 282.177 319.869 282.012C319.853 281.847 319.904 281.683 320.01 281.556C320.115 281.428 320.267 281.348 320.432 281.333C320.471 281.329 320.51 281.329 320.548 281.333C322.548 281.333 322.009 281.333 324.276 281.333C324.276 277.652 323.869 272.314 322.82 270.637C322.571 270.239 322.322 269.886 322.092 269.561C321.98 269.403 321.872 269.251 321.772 269.103L321.748 269.068C321.449 268.63 321.17 268.221 321.17 267.667V264.56C321.167 264.414 321.216 264.271 321.309 264.157C321.401 264.044 321.531 263.966 321.675 263.939C321.713 263.935 321.752 263.935 321.791 263.939V258.347C321.788 258.201 321.838 258.058 321.93 257.944C322.022 257.831 322.152 257.753 322.296 257.726C322.335 257.722 322.374 257.722 322.412 257.726H324.276V255.241C324.276 255.076 324.342 254.918 324.458 254.801C324.575 254.685 324.733 254.619 324.898 254.619H327.383V252.134C327.38 251.988 327.429 251.845 327.522 251.731C327.614 251.618 327.744 251.54 327.888 251.513C327.926 251.509 327.965 251.509 328.004 251.513C331.653 251.513 329.806 251.513 332.974 251.513ZM328.625 252.755V255.241C328.625 255.405 328.56 255.563 328.443 255.68C328.327 255.796 328.169 255.862 328.004 255.862H325.519V257.726H326.14C326.138 257.579 326.187 257.437 326.279 257.323C326.372 257.209 326.501 257.132 326.645 257.104C326.684 257.101 326.723 257.101 326.761 257.104H332.353V252.755C331.107 252.755 329.872 252.755 328.625 252.755ZM349.128 255.862H337.945V260.832H349.128V255.862ZM361.554 255.862H350.371V260.832H361.554V255.862ZM332.353 258.968V258.347H327.383V258.968H332.353ZM326.14 258.968H323.034V263.939H331.111C331.275 263.939 331.433 264.004 331.55 264.121C331.666 264.237 331.732 264.395 331.732 264.56C331.732 265.751 331.908 266.328 332.178 266.599C332.209 266.629 332.255 266.656 332.3 266.683C332.318 266.694 332.336 266.704 332.353 266.715V260.211H326.761C326.597 260.211 326.439 260.145 326.322 260.029C326.206 259.912 326.14 259.754 326.14 259.59V258.968ZM349.128 262.075H337.945V267.045H349.128V262.075ZM361.554 262.075H350.371V267.045H361.554V262.075ZM373.98 262.075H362.797V267.045H373.98V262.075ZM330.547 265.181H322.412V267.667C322.412 267.718 322.507 268.001 322.781 268.404C322.873 268.539 322.98 268.687 323.097 268.849C323.328 269.17 323.598 269.544 323.869 269.977C325.094 271.938 325.519 279.049 325.519 281.333H374.155L376.854 268.288H334.217C332.923 268.288 331.947 268.134 331.285 267.472C330.746 266.933 330.601 266.14 330.547 265.181Z" fill="black" stroke="white" stroke-width="0.5"/>
<path d="M362.095 255.337H337.752H337.255V267.758H375.012V261.299H362.095V255.337Z" fill="#FF9900" style="mix-blend-mode:multiply"/>
<g style="mix-blend-mode:multiply">
<path d="M324.338 274.713C324.735 276.7 324.834 280.178 324.834 281.668L374.515 282.165L377.496 267.757H335.267H332.286L331.293 266.267L330.796 264.777H321.854V267.757L323.344 270.738C323.51 271.235 323.94 272.726 324.338 274.713Z" fill="#618F00"/>
</g>
<path d="M269.688 244.193L255.28 263.071L280.121 291.389L282.605 285.924L284.592 279.963V270.523L285.586 263.568L290.057 252.141L292.541 244.689L291.547 239.721L290.057 236.74L287.573 235.747H286.082L284.095 239.224L283.101 241.709L277.637 238.231L269.688 244.193Z" fill="white"/>
<path d="M227.46 312.672L219.511 326.085C221.332 329.232 226.367 336.717 231.931 341.486C237.495 346.256 250.478 346.786 256.274 346.455L264.223 332.047V330.06L260.746 328.073L256.771 326.582L259.255 321.117L262.733 312.672L266.211 306.71L268.198 304.226L272.669 300.251L276.147 297.271L279.128 293.793L281.612 288.328L283.102 282.366L283.599 278.392V273.921L284.096 268.456L285.089 263.984L286.58 259.513L289.561 254.048L291.051 249.08L291.548 244.112L290.057 240.635L287.573 237.654H285.586L282.605 242.125V234.176L261.243 253.552L257.268 259.513L246.835 278.889L228.95 310.684L227.46 312.672Z" fill="white"/>
<path d="M268.198 303.313L268.459 303.545L268.198 303.313ZM292.045 246.677L291.7 246.614L292.045 246.677ZM286.083 235.747L285.786 235.561L285.777 235.577L285.769 235.593L286.083 235.747ZM266.419 266.848C266.309 267.007 266.35 267.225 266.51 267.334C266.669 267.444 266.887 267.403 266.996 267.244L266.419 266.848ZM256.771 260.587L256.458 260.431L256.771 260.587ZM228.453 310.268L228.736 310.061L228.419 309.63L228.151 310.092L228.453 310.268ZM252.797 326.166L252.915 325.836L252.797 326.166ZM257.765 324.628L257.44 324.498L257.765 324.628ZM265.892 328.65L266.216 328.518L265.892 328.65ZM268.459 303.545C272.329 299.193 284.943 293.064 284.943 275.492H284.243C284.243 292.71 272.016 298.49 267.936 303.08L268.459 303.545ZM284.943 275.492C284.943 266.094 286.395 261.153 288.035 257.466C289.665 253.8 291.574 251.22 292.389 246.739L291.7 246.614C290.905 250.986 289.089 253.374 287.395 257.182C285.711 260.97 284.243 266.01 284.243 275.492H284.943ZM292.389 246.739C292.898 243.94 292.517 241.341 291.751 239.336C291.367 238.333 290.885 237.472 290.364 236.806C289.847 236.145 289.273 235.652 288.697 235.422L288.437 236.072C288.855 236.239 289.337 236.629 289.813 237.237C290.285 237.841 290.735 238.638 291.097 239.586C291.821 241.48 292.185 243.949 291.7 246.614L292.389 246.739ZM288.697 235.422C287.66 235.007 286.959 234.986 286.49 235.111C286.255 235.173 286.087 235.27 285.973 235.362C285.916 235.407 285.874 235.45 285.844 235.485C285.828 235.503 285.816 235.518 285.807 235.531C285.802 235.538 285.798 235.544 285.794 235.549C285.793 235.551 285.791 235.553 285.79 235.556C285.789 235.557 285.788 235.558 285.788 235.559C285.788 235.559 285.787 235.56 285.787 235.56C285.787 235.56 285.787 235.561 285.787 235.561C285.786 235.561 285.786 235.561 286.083 235.747C286.38 235.932 286.38 235.933 286.379 235.933C286.379 235.933 286.379 235.934 286.379 235.934C286.379 235.934 286.378 235.935 286.378 235.935C286.378 235.936 286.377 235.936 286.377 235.937C286.376 235.939 286.375 235.94 286.374 235.941C286.373 235.943 286.372 235.944 286.371 235.945C286.37 235.947 286.371 235.946 286.373 235.943C286.377 235.938 286.389 235.925 286.41 235.908C286.451 235.876 286.532 235.824 286.67 235.787C286.946 235.713 287.487 235.692 288.437 236.072L288.697 235.422ZM286.083 235.747C285.769 235.593 285.769 235.593 285.769 235.593C285.769 235.593 285.769 235.593 285.769 235.593C285.768 235.593 285.768 235.594 285.768 235.595C285.767 235.596 285.766 235.598 285.765 235.601C285.762 235.607 285.758 235.615 285.752 235.626C285.741 235.649 285.724 235.683 285.702 235.727C285.658 235.816 285.593 235.948 285.507 236.118C285.337 236.459 285.086 236.955 284.769 237.575C284.133 238.815 283.228 240.551 282.149 242.535C279.99 246.506 277.14 251.46 274.37 255.419L274.943 255.82C277.737 251.829 280.601 246.847 282.764 242.869C283.846 240.879 284.754 239.138 285.391 237.894C285.71 237.272 285.961 236.774 286.133 236.432C286.219 236.26 286.285 236.128 286.329 236.038C286.352 235.994 286.368 235.959 286.38 235.936C286.385 235.925 286.39 235.916 286.393 235.91C286.394 235.907 286.395 235.905 286.396 235.904C286.396 235.903 286.397 235.902 286.397 235.902C286.397 235.902 286.397 235.902 286.397 235.902C286.397 235.901 286.397 235.901 286.083 235.747ZM274.37 255.419C271.587 259.393 269.6 262.25 268.308 264.114C267.662 265.046 267.19 265.729 266.879 266.18C266.724 266.405 266.609 266.572 266.532 266.683C266.494 266.738 266.466 266.779 266.447 266.807C266.438 266.82 266.431 266.831 266.426 266.838C266.424 266.841 266.422 266.844 266.421 266.845C266.42 266.846 266.42 266.847 266.419 266.847C266.419 266.847 266.419 266.848 266.419 266.848C266.419 266.848 266.419 266.848 266.419 266.848C266.419 266.848 266.419 266.848 266.707 267.046C266.996 267.244 266.996 267.244 266.996 267.244C266.996 267.244 266.996 267.244 266.996 267.244C266.996 267.243 266.996 267.243 266.997 267.243C266.997 267.243 266.997 267.242 266.998 267.241C266.999 267.24 267.001 267.237 267.003 267.234C267.008 267.227 267.015 267.217 267.024 267.203C267.043 267.176 267.071 267.134 267.109 267.079C267.185 266.969 267.3 266.802 267.455 266.577C267.765 266.127 268.237 265.444 268.883 264.513C270.174 262.65 272.161 259.794 274.943 255.82L274.37 255.419ZM228.95 310.765C229.256 310.935 229.256 310.935 229.256 310.935C229.256 310.934 229.257 310.934 229.257 310.933C229.258 310.931 229.259 310.929 229.261 310.926C229.264 310.92 229.269 310.912 229.275 310.9C229.288 310.877 229.307 310.842 229.333 310.797C229.384 310.706 229.459 310.57 229.557 310.393C229.754 310.04 230.043 309.521 230.411 308.861C231.146 307.539 232.198 305.649 233.463 303.374C235.994 298.825 239.378 292.739 242.794 286.591C249.621 274.303 256.583 261.746 257.084 260.744L256.458 260.431C255.966 261.415 249.017 273.948 242.182 286.251C238.767 292.399 235.382 298.485 232.852 303.034C231.586 305.308 230.534 307.199 229.799 308.52C229.431 309.181 229.143 309.7 228.946 310.053C228.847 310.23 228.772 310.365 228.721 310.456C228.696 310.502 228.677 310.537 228.664 310.56C228.657 310.571 228.652 310.58 228.649 310.586C228.648 310.589 228.646 310.591 228.646 310.592C228.645 310.593 228.645 310.594 228.645 310.594C228.644 310.594 228.644 310.595 228.95 310.765ZM257.084 260.744C260.267 254.378 263.591 250.561 267.796 246.721C269.904 244.796 272.229 242.869 274.877 240.606C277.523 238.345 280.481 235.757 283.842 232.521L283.356 232.017C280.01 235.24 277.063 237.818 274.423 240.074C271.785 242.327 269.444 244.268 267.324 246.204C263.07 250.089 259.688 253.972 256.458 260.431L257.084 260.744ZM228.171 310.475C231.863 315.51 238.716 321.509 252.679 326.495L252.915 325.836C239.056 320.887 232.33 314.962 228.736 310.061L228.171 310.475ZM257.098 327.285C257.387 326.533 257.721 325.682 258.09 324.758L257.44 324.498C257.07 325.424 256.735 326.279 256.445 327.034L257.098 327.285ZM258.09 324.758C259.488 321.257 261.391 316.725 263.295 312.676C264.246 310.651 265.197 308.75 266.082 307.161C266.971 305.566 267.784 304.305 268.459 303.545L267.936 303.08C267.207 303.9 266.364 305.218 265.471 306.82C264.574 308.429 263.617 310.345 262.661 312.378C260.75 316.444 258.841 320.989 257.44 324.498L258.09 324.758ZM252.679 326.495C256.084 327.711 259.443 328.497 261.923 328.899C263.161 329.099 264.19 329.206 264.9 329.221C265.249 329.228 265.546 329.214 265.757 329.167C265.855 329.146 265.983 329.108 266.084 329.024C266.141 328.978 266.203 328.906 266.233 328.804C266.264 328.698 266.249 328.597 266.216 328.518L265.568 328.782C265.552 328.743 265.54 328.679 265.561 328.608C265.58 328.54 265.619 328.5 265.64 328.483C265.67 328.458 265.677 328.468 265.607 328.484C265.48 328.511 265.252 328.528 264.914 328.521C264.25 328.507 263.257 328.406 262.035 328.208C259.593 327.812 256.275 327.037 252.915 325.836L252.679 326.495ZM266.216 328.518C266.078 328.18 265.808 327.883 265.431 327.599C265.053 327.314 264.543 327.023 263.889 326.709C262.581 326.079 260.639 325.324 257.887 324.3L257.643 324.956C260.4 325.982 262.312 326.726 263.586 327.339C264.223 327.646 264.685 327.913 265.01 328.157C265.335 328.403 265.497 328.608 265.568 328.782L266.216 328.518ZM257.765 344.051C258.074 344.215 258.074 344.215 258.074 344.215C258.074 344.215 258.074 344.214 258.074 344.214C258.075 344.214 258.075 344.214 258.075 344.213C258.076 344.212 258.076 344.211 258.077 344.209C258.08 344.204 258.083 344.198 258.087 344.19C258.096 344.174 258.109 344.15 258.125 344.118C258.159 344.055 258.209 343.96 258.274 343.838C258.403 343.594 258.592 343.237 258.83 342.786C259.306 341.886 259.98 340.613 260.767 339.122C262.342 336.141 264.374 332.291 266.202 328.813L265.582 328.487C263.754 331.964 261.723 335.814 260.148 338.795C259.361 340.286 258.688 341.559 258.211 342.459C257.973 342.909 257.784 343.266 257.655 343.511C257.59 343.633 257.54 343.727 257.507 343.791C257.49 343.822 257.477 343.847 257.469 343.863C257.464 343.871 257.461 343.877 257.459 343.881C257.458 343.883 257.457 343.885 257.456 343.886C257.456 343.886 257.456 343.887 257.456 343.887C257.456 343.887 257.456 343.887 257.456 343.887C257.456 343.887 257.456 343.887 257.765 344.051ZM228.151 310.092L219.208 325.493L219.813 325.845L228.756 310.444L228.151 310.092Z" fill="black"/>
<path d="M435.623 307.287L444.565 337.512L391.407 350.509L387.929 343.554L384.948 336.102L384.451 331.134L385.445 326.663L386.935 322.191L388.426 321.198L383.955 305.797L380.477 292.88L378.49 287.415L377.496 282.447L377.993 277.975L379.98 274.995L382.961 274.001L385.942 275.988L388.923 280.459L399.852 309.274L400.349 307.287L401.84 304.803L403.33 302.816L405.814 301.822H407.801L409.789 303.313L411.776 305.797L413.763 302.319L416.744 300.829H420.222L422.706 303.313L424.196 306.293L425.686 304.306L427.674 302.319L430.158 301.822L432.642 303.313L435.623 307.287Z" fill="white"/>
<path d="M399.853 309.771L402.337 315.236M411.776 306.293L412.77 310.765M424.196 306.293L424.693 310.765" stroke="black" stroke-width="0.7" stroke-linecap="round"/>
<path d="M444.72 340.154C444.763 340.343 444.951 340.461 445.139 340.418C445.327 340.374 445.445 340.187 445.402 339.998L444.72 340.154ZM438.603 314.739L438.937 314.635L438.603 314.739ZM424.195 306.79L423.853 306.864L424.062 307.839L424.508 306.947L424.195 306.79ZM417.24 300.829L417.302 301.173L417.24 300.829ZM411.775 306.293L411.454 306.434L411.876 307.396L412.116 306.373L411.775 306.293ZM399.852 309.771L399.526 309.9L399.947 310.963L400.193 309.846L399.852 309.771ZM390.909 286.421L391.241 286.31L390.909 286.421ZM381.47 274.498L381.359 274.166L381.47 274.498ZM378.489 286.421L378.149 286.506L378.152 286.516L378.489 286.421ZM392.063 335.7C392.115 335.886 392.309 335.994 392.495 335.942C392.681 335.889 392.789 335.696 392.736 335.51L392.063 335.7ZM392.108 352.194C392.215 352.355 392.433 352.398 392.594 352.291C392.754 352.184 392.798 351.966 392.691 351.806L392.108 352.194ZM445.402 339.998C444.078 334.204 440.929 321.009 438.937 314.635L438.269 314.844C440.251 321.187 443.395 334.356 444.72 340.154L445.402 339.998ZM438.937 314.635C437.688 310.64 436.185 307.375 434.605 305.1C433.815 303.963 432.999 303.062 432.176 302.443C431.353 301.824 430.505 301.472 429.66 301.472V302.172C430.306 302.172 431.01 302.441 431.755 303.002C432.5 303.563 433.267 304.401 434.03 305.499C435.556 307.696 437.033 310.89 438.269 314.844L438.937 314.635ZM429.66 301.472C428.816 301.472 428.032 301.823 427.345 302.314C426.657 302.805 426.045 303.452 425.536 304.088C425.027 304.724 424.615 305.359 424.33 305.834C424.187 306.072 424.076 306.27 424 306.41C423.962 306.48 423.933 306.535 423.913 306.573C423.903 306.592 423.896 306.607 423.89 306.617C423.888 306.622 423.886 306.626 423.884 306.629C423.884 306.63 423.883 306.631 423.883 306.632C423.883 306.633 423.882 306.633 423.882 306.633C423.882 306.633 423.882 306.633 423.882 306.634C423.882 306.634 423.882 306.634 424.195 306.79C424.508 306.947 424.508 306.947 424.508 306.947C424.508 306.947 424.508 306.947 424.508 306.947C424.508 306.947 424.508 306.947 424.508 306.946C424.509 306.946 424.509 306.945 424.509 306.944C424.51 306.942 424.512 306.939 424.514 306.935C424.519 306.926 424.525 306.913 424.534 306.896C424.552 306.861 424.579 306.81 424.615 306.744C424.687 306.612 424.793 306.422 424.93 306.194C425.204 305.737 425.599 305.13 426.083 304.525C426.569 303.918 427.136 303.324 427.752 302.883C428.37 302.442 429.013 302.172 429.66 302.172V301.472ZM424.195 306.79C424.537 306.717 424.537 306.717 424.537 306.717C424.537 306.716 424.537 306.716 424.537 306.716C424.537 306.716 424.537 306.715 424.537 306.715C424.537 306.713 424.536 306.712 424.536 306.71C424.535 306.706 424.534 306.7 424.532 306.693C424.529 306.678 424.524 306.657 424.517 306.63C424.504 306.576 424.485 306.499 424.458 306.401C424.405 306.206 424.323 305.93 424.207 305.602C423.976 304.949 423.608 304.083 423.06 303.245C421.963 301.567 420.103 299.952 417.177 300.484L417.302 301.173C419.842 300.711 421.46 302.077 422.474 303.628C422.982 304.405 423.328 305.216 423.547 305.836C423.656 306.145 423.733 306.404 423.783 306.586C423.808 306.676 423.825 306.747 423.837 306.795C423.843 306.818 423.847 306.836 423.849 306.848C423.851 306.854 423.852 306.858 423.852 306.861C423.853 306.862 423.853 306.863 423.853 306.863C423.853 306.864 423.853 306.864 423.853 306.864C423.853 306.864 423.853 306.864 423.853 306.864C423.853 306.864 423.853 306.864 424.195 306.79ZM417.177 300.484C414.866 300.904 413.427 302.351 412.574 303.669C412.148 304.328 411.864 304.96 411.687 305.427C411.598 305.661 411.536 305.855 411.495 305.991C411.475 306.06 411.46 306.114 411.45 306.152C411.445 306.17 411.441 306.185 411.439 306.196C411.437 306.201 411.436 306.205 411.436 306.208C411.435 306.209 411.435 306.211 411.435 306.212C411.435 306.212 411.434 306.213 411.434 306.213C411.434 306.213 411.434 306.213 411.434 306.213C411.434 306.213 411.434 306.214 411.775 306.293C412.116 306.373 412.116 306.373 412.116 306.373C412.116 306.373 412.116 306.374 412.116 306.374C412.116 306.374 412.116 306.374 412.116 306.373C412.116 306.373 412.116 306.373 412.116 306.372C412.116 306.371 412.117 306.368 412.118 306.364C412.12 306.357 412.123 306.346 412.127 306.33C412.135 306.299 412.148 306.252 412.166 306.191C412.202 306.069 412.259 305.892 412.341 305.675C412.506 305.242 412.768 304.657 413.162 304.049C413.949 302.833 415.242 301.548 417.302 301.173L417.177 300.484ZM411.775 306.293C412.096 306.153 412.095 306.153 412.095 306.153C412.095 306.152 412.095 306.152 412.095 306.152C412.095 306.152 412.095 306.151 412.095 306.151C412.094 306.15 412.094 306.149 412.093 306.147C412.091 306.144 412.089 306.139 412.087 306.133C412.081 306.121 412.074 306.104 412.063 306.082C412.043 306.039 412.013 305.976 411.974 305.897C411.896 305.739 411.78 305.516 411.628 305.252C411.326 304.727 410.878 304.035 410.299 303.379C409.152 302.08 407.405 300.83 405.216 301.487L405.417 302.157C407.203 301.622 408.684 302.607 409.774 303.842C410.312 304.453 410.734 305.102 411.021 305.602C411.165 305.851 411.274 306.061 411.347 306.208C411.383 306.281 411.411 306.339 411.429 306.378C411.438 306.397 411.444 306.412 411.449 306.421C411.451 306.426 411.452 306.429 411.453 306.432C411.454 306.433 411.454 306.433 411.454 306.434C411.454 306.434 411.455 306.434 411.455 306.434C411.455 306.434 411.455 306.434 411.455 306.434C411.454 306.434 411.454 306.434 411.775 306.293ZM405.216 301.487C403.075 302.129 401.653 304.243 400.777 306.094C400.334 307.032 400.017 307.93 399.812 308.593C399.71 308.925 399.634 309.199 399.585 309.391C399.56 309.486 399.541 309.562 399.529 309.614C399.523 309.64 399.518 309.66 399.515 309.673C399.513 309.68 399.512 309.686 399.511 309.689C399.511 309.691 399.51 309.693 399.51 309.694C399.51 309.694 399.51 309.695 399.51 309.695C399.51 309.695 399.51 309.695 399.51 309.695C399.51 309.696 399.51 309.696 399.852 309.771C400.193 309.846 400.193 309.847 400.193 309.847C400.193 309.847 400.193 309.847 400.193 309.847C400.193 309.846 400.193 309.846 400.193 309.846C400.194 309.845 400.194 309.844 400.194 309.843C400.195 309.84 400.196 309.836 400.197 309.83C400.2 309.818 400.204 309.8 400.21 309.776C400.221 309.728 400.239 309.658 400.262 309.566C400.31 309.384 400.382 309.12 400.481 308.8C400.679 308.159 400.984 307.293 401.41 306.393C402.273 304.568 403.583 302.707 405.417 302.157L405.216 301.487ZM399.852 309.771C400.177 309.642 400.177 309.642 400.177 309.642C400.177 309.642 400.177 309.642 400.177 309.641C400.176 309.641 400.176 309.64 400.176 309.639C400.175 309.637 400.173 309.633 400.172 309.629C400.168 309.62 400.163 309.607 400.156 309.589C400.142 309.554 400.121 309.501 400.094 309.433C400.04 309.295 399.96 309.094 399.858 308.835C399.654 308.318 399.361 307.573 399.004 306.665C398.29 304.849 397.321 302.378 396.303 299.758C394.264 294.513 392.033 288.685 391.241 286.31L390.577 286.532C391.375 288.927 393.615 294.774 395.65 300.011C396.669 302.633 397.638 305.105 398.352 306.921C398.709 307.83 399.003 308.574 399.207 309.092C399.309 309.351 399.389 309.553 399.443 309.69C399.47 309.759 399.491 309.811 399.505 309.846C399.512 309.864 399.517 309.877 399.521 309.886C399.523 309.891 399.524 309.894 399.525 309.896C399.525 309.898 399.526 309.898 399.526 309.899C399.526 309.899 399.526 309.9 399.526 309.9C399.526 309.9 399.526 309.9 399.852 309.771ZM391.241 286.31C390.25 283.337 389.071 279.918 387.53 277.443C386.759 276.204 385.879 275.171 384.859 274.552C383.823 273.925 382.655 273.734 381.359 274.166L381.581 274.83C382.67 274.467 383.626 274.624 384.496 275.151C385.382 275.688 386.191 276.617 386.936 277.813C388.425 280.206 389.581 283.543 390.577 286.532L391.241 286.31ZM381.359 274.166C378.797 275.02 377.753 277.164 377.471 279.524C377.19 281.873 377.65 284.506 378.149 286.506L378.828 286.336C378.335 284.361 377.9 281.828 378.166 279.607C378.43 277.396 379.373 275.566 381.581 274.83L381.359 274.166ZM378.152 286.516L387.847 320.796L388.521 320.606L378.826 286.326L378.152 286.516ZM387.847 320.796L392.063 335.7L392.736 335.51L388.521 320.606L387.847 320.796ZM387.928 320.463C386.242 322.276 385.12 325.438 384.562 328.551C384.004 331.664 383.992 334.838 384.615 336.709L385.279 336.488C384.711 334.782 384.701 331.746 385.251 328.674C385.802 325.602 386.894 322.603 388.44 320.939L387.928 320.463ZM384.615 336.709C385.815 340.309 389.107 347.691 392.108 352.194L392.691 351.806C389.731 347.365 386.464 340.042 385.279 336.488L384.615 336.709Z" fill="black"/>
<path d="M222.17 119.493L185.407 106.08C168.019 101.112 142.185 100.615 127.777 106.08C116.251 110.452 115.026 117.837 115.854 120.984C118.835 148.639 125.392 210.409 127.777 236.243C130.162 262.077 133.067 257.109 132.073 264.561C145.016 260.437 219.19 269.64 219.19 255.619C219.19 242.205 250.489 143.837 247.011 136.385C244.229 130.423 228.795 122.143 222.17 119.493Z" fill="url(#paint0_linear)"/>
<path d="M250.488 142.844C248.899 134.895 243.864 131.583 241.546 130.92C235.779 126.449 224.654 136.385 219.189 150.296C214.818 161.424 205.113 204.613 200.808 224.817C208.094 233.759 225.449 245.981 236.578 223.327C250.488 195.008 252.476 152.78 250.488 142.844Z" fill="url(#paint1_linear)"/>
<path d="M80.5791 153.773C104.823 105.682 134.731 102.105 154.107 102.105L126.285 157.748C126.285 157.748 88.5281 193.021 85.5472 195.008C82.5663 196.996 56.3349 201.864 80.5791 153.773Z" fill="url(#paint2_linear)"/>
<path d="M219.014 263.598C221.001 275.124 224.81 288.604 226.466 293.904C210.568 303.442 156.913 301.521 132.072 299.368L135.55 265.089H154.925H200.632C205.931 259.789 217.026 252.072 219.014 263.598Z" fill="#272D30"/>
<path d="M220.182 265.058L219.685 255.122C217.367 255.785 205.973 257.308 178.947 258.103C151.921 258.898 134.234 257.11 128.77 256.116L129.266 266.549C135.559 267.874 153.709 270.424 175.966 270.027C198.223 269.629 214.717 266.549 220.182 265.058Z" fill="#262626"/>
<rect x="166.03" y="257.606" width="18.8787" height="12.917" rx="2" fill="#545454"/>
<path d="M201.801 86.7047C200.608 94.2562 201.635 109.392 202.298 116.016C189.712 117.176 165.434 115.818 169.011 101.112C173.483 82.7303 171.992 83.7239 169.011 73.2909C166.627 64.9445 168.349 52.5906 169.508 47.4569C177.291 40.9984 192.42 31.6308 199.317 40.0048C206.272 48.4505 208.259 59.3803 208.259 70.3101C208.259 78.6659 205.775 82.7303 201.801 86.7047Z" fill="#FFCC9C"/>
<path d="M201.801 86.7047C200.608 94.2562 201.635 109.392 202.298 116.016C189.712 117.176 165.434 115.818 169.011 101.112C173.483 82.7303 171.992 83.7239 169.011 73.2909C166.627 64.9445 168.349 52.5906 169.508 47.4569C177.291 40.9984 192.42 31.6308 199.317 40.0048C206.272 48.4505 208.259 59.3803 208.259 70.3101C208.259 78.6659 205.775 82.7303 201.801 86.7047Z" fill="url(#paint3_linear)"/>
<path d="M200.185 68.3226C200.185 68.3226 195.217 66.3353 193.229 56.896C191.64 66.4347 193.892 71.8002 195.217 73.2906C201.178 71.3034 200.185 68.3226 200.185 68.3226Z" fill="url(#paint4_linear)"/>
<path d="M183.915 87.6982C183.915 87.6982 193.354 91.1759 201.8 86.7046C201.303 89.6854 201.303 92.1695 201.303 92.1695C197.826 94.1567 186.314 93.499 183.915 87.6982Z" fill="#EAB07C"/>
<path d="M157.584 58.3865C160.17 65.9086 164.551 67.1648 165.994 68.8195C166.175 67.7164 167.619 64.4071 171.95 59.9946C177.364 54.4791 164.912 49.5152 174.116 49.5152C183.32 49.5152 197.938 45.6543 201.186 40.6904C204.435 35.7264 202.269 23.5923 199.021 20.8346C195.772 18.0768 193.065 24.1439 191.982 26.9016C190.9 29.6594 186.568 26.9016 182.237 26.3501C177.906 25.7985 180.462 31.4463 170.998 32.0557C157.715 32.911 165.453 41.7935 165.453 41.7935C165.453 41.7935 152.119 42.4887 157.584 58.3865Z" fill="#343434"/>
<path d="M164.043 61.3677C167.223 59.3805 169.342 62.5269 170.005 64.3485C171.33 65.6734 172.986 69.0185 169.011 71.8007C164.043 75.2783 160.069 63.8517 164.043 61.3677Z" fill="#F5BE8C"/>
<path d="M26.9244 113.532C28.1168 117.904 30.5678 123.137 32.3894 127.443C41.1664 127.939 59.3164 132.311 55.7394 127.939C52.1624 123.567 47.9561 92.0036 46.3 76.7682C44.3128 76.437 38.6491 75.3771 31.8925 73.7873C23.4468 71.8001 23.4468 95.6469 23.9436 99.1245C24.4404 102.602 25.434 108.067 26.9244 113.532Z" fill="#FFCC9C"/>
<path d="M88.0313 164.207L48.2867 114.526L30.8984 123.965C41.3314 149.137 68.9539 205.243 84.0568 196.499C99.1598 187.755 92.9994 171.328 88.0313 164.207Z" fill="#C8EEFF"/>
<path d="M35.223 41.998C35.223 41.6391 35.5141 41.348 35.873 41.348H96.4708C96.8298 41.348 97.1208 41.6391 97.1208 41.998V129.423C97.1208 129.782 96.8298 130.073 96.4708 130.073H49.1763C49.0123 130.073 48.8543 130.011 48.7341 129.9L35.4308 117.547C35.2983 117.424 35.223 117.251 35.223 117.07V41.998Z" fill="white" stroke="black" stroke-width="0.7"/>
<path d="M44.6348 59.0039C44.6348 55.9858 47.0815 53.5391 50.0996 53.5391C53.1178 53.5391 55.5645 55.9858 55.5645 59.0039C55.5645 62.0221 53.1178 64.4688 50.0996 64.4688C47.0815 64.4688 44.6348 62.0221 44.6348 59.0039Z" fill="#1C1C1C"/>
<path d="M47.6162 59.0041L49.6034 60.4945L52.5843 57.5137" stroke="white" stroke-linecap="round"/>
<path d="M44.6348 74.9019C44.6348 71.8837 47.0815 69.437 50.0996 69.437C53.1178 69.437 55.5645 71.8837 55.5645 74.9019C55.5645 77.9201 53.1178 80.3668 50.0996 80.3668C47.0815 80.3668 44.6348 77.9201 44.6348 74.9019Z" fill="#1C1C1C"/>
<path d="M47.6162 74.902L49.6034 76.3925L52.5843 73.4116" stroke="white" stroke-linecap="round"/>
<path d="M44.6348 90.9317C44.6348 87.9135 47.0815 85.4668 50.0996 85.4668C53.1178 85.4668 55.5645 87.9135 55.5645 90.9317C55.5645 93.9499 53.1178 96.3966 50.0996 96.3966C47.0815 96.3966 44.6348 93.9499 44.6348 90.9317Z" fill="#1C1C1C"/>
<path d="M47.6162 90.9323L49.6034 92.4227L52.5843 89.4419" stroke="white" stroke-linecap="round"/>
<path d="M44.6348 107.126C44.6348 104.107 47.0815 101.661 50.0996 101.661C53.1178 101.661 55.5645 104.107 55.5645 107.126C55.5645 110.144 53.1178 112.59 50.0996 112.59C47.0815 112.59 44.6348 110.144 44.6348 107.126Z" fill="#1C1C1C"/>
<path d="M47.6162 107.126L49.6034 108.616L52.5843 105.635" stroke="white" stroke-linecap="round"/>
<path d="M61.5264 59.0041C62.0232 58.6729 63.5136 59.0041 65.5008 59.0041C67.9849 59.0041 69.9721 59.0041 71.9593 59.0041C73.9466 59.0041 76.4306 58.0105 79.9082 58.0105C82.6904 58.0105 86.0355 57.6793 87.3604 58.0105" stroke="black" stroke-width="0.7" stroke-linecap="round"/>
<path d="M61.5264 74.405C62.0232 74.0738 63.5136 74.405 65.5008 74.405C67.9849 74.405 69.9721 74.405 71.9593 74.405C73.9466 74.405 76.4306 73.4114 79.9082 73.4114C82.6904 73.4114 86.0355 73.0802 87.3604 73.4114" stroke="black" stroke-width="0.7" stroke-linecap="round"/>
<path d="M61.5264 90.3029C62.0232 89.9717 63.5136 89.3093 65.5008 89.3093C67.9849 89.3093 69.9721 90.3029 71.9593 90.3029C73.9466 90.3029 76.4306 89.3093 79.9082 89.3093C82.6904 89.3093 83.0547 88.9781 85.3731 89.3093" stroke="black" stroke-width="0.7" stroke-linecap="round"/>
<path d="M61.5264 106.201C62.0232 105.87 63.5136 105.207 65.5008 105.207C67.9849 105.207 71.9593 106.201 73.9466 106.201C75.9338 106.201 77.4242 105.207 80.9019 105.207C83.684 105.207 82.0611 104.876 85.3731 105.207" stroke="black" stroke-width="0.7" stroke-linecap="round"/>
<path d="M49.1062 129.926V116.513H35.6924" stroke="black" stroke-width="0.7"/>
<path d="M28.9724 74.8133C28.0759 73.0205 41.7742 73.6008 42.9093 73.6504C44.3283 73.7123 47.7962 74.8133 45.94 76.7497C43.9697 78.805 37.6878 79.5133 34.126 79.878C37.8787 79.5305 44.1026 79.2672 45.5266 79.1052C47.7962 78.847 49.1407 82.4325 45.5925 83.6178C41.4198 85.0117 36.3944 85.7873 34.4336 86.0973L45.9919 85.4154C47.2354 85.3906 48.6925 86.4662 47.7962 87.8108C46.5285 89.7123 40.4572 91.424 35.7917 92.2092L45.0383 91.6637C46.4306 91.6058 47.1836 92.4887 46.8998 93.6372C46.5052 95.234 44.3824 96.2148 43.3143 96.3263L36.9899 97.602L30.1588 98.5673L28.9724 74.8133Z" fill="#FFCC9C"/>
<path d="M183.42 113.532C188.587 109.557 193.19 111.545 194.846 113.035L193.356 120.487H186.401L183.42 113.532Z" fill="#343434"/>
<path d="M193.356 120.487H186.401C175.67 173.348 169.178 217.365 175.968 231.275C191.071 187.159 199.649 138.041 193.356 120.487Z" fill="#414141"/>
<path d="M178.451 122.971L187.394 111.048L169.012 96.1436L161.56 102.602L178.451 122.971Z" fill="#B0E4FC"/>
<path d="M197.826 121.977L190.871 111.047L202.298 102.602L207.763 114.525L197.826 121.977Z" fill="#B0E4FC"/>
<path d="M144.866 152.678L188.636 146.078C189.428 145.959 190.168 146.498 190.297 147.289C190.426 148.08 189.895 148.827 189.106 148.965L145.505 156.601L144.866 152.678Z" fill="black"/>
<path d="M144.866 152.678L126.684 156.238C125.943 156.383 125.451 157.09 125.572 157.835C125.694 158.581 126.385 159.095 127.134 158.998L145.505 156.601L144.866 152.678Z" fill="black"/>
<path d="M122.63 158.315C122.605 158.162 122.697 158.014 122.846 157.97L126.625 156.84L126.887 158.445L122.944 158.574C122.789 158.579 122.655 158.468 122.63 158.315Z" fill="black"/>
<path d="M221.672 201.964L176.463 166.69L165.533 186.066C178.781 205.276 209.352 241.907 225.647 234.753C241.942 227.599 229.787 209.913 221.672 201.964Z" fill="#E0F5FF"/>
<path d="M172.489 162.219C173.682 165.399 175.47 166.194 176.464 167.187L166.031 186.563C159.738 181.263 149.14 173.646 146.159 168.678C143.178 163.709 147.152 163.213 147.152 163.213C145.662 162.219 144.668 158.245 148.642 158.245C147.152 153.773 150.63 153.773 153.114 155.264C151.126 152.283 149.338 151.488 148.146 150.296C146.655 148.805 143.391 146.818 143.178 145.328C142.556 140.974 150.378 145.283 151.624 146.321C154.008 148.308 160.4 152.78 163.05 154.767C162.056 152.283 159.572 148.805 161.56 145.328C163.197 142.462 165.534 144.334 166.031 146.321C166.776 149.302 167.852 150.627 168.515 151.786C169.343 153.939 171.297 159.039 172.489 162.219Z" fill="#FFCC9C"/>
<path d="M172.489 162.219C173.682 165.399 175.47 166.194 176.464 167.187L166.031 186.563C159.738 181.263 149.14 173.646 146.159 168.678C143.178 163.709 147.152 163.213 147.152 163.213C145.662 162.219 144.668 158.245 148.642 158.245C147.152 153.773 150.63 153.773 153.114 155.264C151.126 152.283 149.338 151.488 148.146 150.296C146.655 148.805 143.391 146.818 143.178 145.328C142.556 140.974 150.378 145.283 151.624 146.321C154.008 148.308 160.4 152.78 163.05 154.767C162.056 152.283 159.572 148.805 161.56 145.328C163.197 142.462 165.534 144.334 166.031 146.321C166.776 149.302 167.852 150.627 168.515 151.786C169.343 153.939 171.297 159.039 172.489 162.219Z" fill="url(#paint5_linear)"/>
<path fill-rule="evenodd" clip-rule="evenodd" d="M160.433 150.376L162.207 153.728L189.405 148.965C190.194 148.827 190.725 148.08 190.596 147.289C190.467 146.498 189.727 145.959 188.935 146.078L160.433 150.376Z" fill="black"/>
<path d="M341.217 96.0043C338.435 90.8375 333.103 89.877 330.784 90.0426C331.115 95.6731 332.573 108.424 335.752 114.386C338.932 120.348 349.332 135.418 354.134 142.207C357.612 140.22 363.573 134.258 363.573 134.258C363.573 134.258 356.121 126.806 351.65 117.864C347.42 109.403 343.999 101.171 341.217 96.0043Z" fill="url(#paint6_linear)"/>
<path d="M369.535 141.711C368.343 139.724 364.402 135.252 362.58 133.265C358.109 133.928 350.06 136.544 353.637 141.711C357.214 146.878 364.07 152.144 367.051 154.131C368.376 154.793 371.224 156.416 372.019 157.609C372.814 158.801 374.669 163.405 375.497 165.558L382.949 162.08C381.459 160.755 378.08 157.509 376.491 155.125C374.503 152.144 371.026 144.195 369.535 141.711Z" fill="#FFCC9C"/>
<path d="M330.288 90.0429C326.779 90.4616 320.861 89.6855 317.384 89.6855C310.925 89.6856 304.081 90.0429 302.963 90.5397C294.021 94.5142 295.511 103.954 301.473 123.826C306.242 139.724 303.791 152.309 301.97 156.615L331.778 155.621C330.784 150.653 332.907 142.24 337.74 133.265C344.695 120.348 340.224 117.367 338.733 112.399C337.541 108.425 339.23 103.457 339.23 103.457C339.23 103.457 340.82 96.3027 339.23 93.5206C337.243 90.0429 333.282 89.6855 330.288 90.0429Z" fill="url(#paint7_linear)"/>
<path d="M301.97 91.0366C302.633 90.7054 304.156 90.2417 304.951 91.0366C305.945 92.0302 307.435 97.9919 305.448 107.928C303.858 115.877 298.824 131.444 296.505 138.233C295.843 140.552 294.617 145.387 295.015 146.182C295.08 146.312 295.235 146.638 296.518 147.315C293.51 148.315 292.556 150.207 291.55 157.748C290.955 157.44 287.533 157.088 287.079 156.755C279.626 151.29 283.091 134.259 286.569 123.826C287.042 122.407 287.552 120.813 288.096 119.112C291.552 108.308 296.39 93.1827 301.97 91.0366Z" fill="url(#paint8_linear)"/>
<path d="M287.078 156.663C287.867 150.693 293.427 148.036 296.609 147.315C303.053 149.893 323.903 157.323 335.166 161.291C336.179 161.545 338.102 162.358 337.697 163.576C337.191 165.1 336.219 166.5 334.153 168.528C331.312 171.318 322.509 164.338 321.497 161.672C321.497 161.672 296.348 160.321 287.078 156.663Z" fill="#FFCC9C"/>
<path d="M321.345 82.5909C321.345 82.5909 333.268 83.5845 324.822 65.2026C314.721 68.3491 297.597 77.7222 309.918 90.043C322.239 102.364 326.823 95.1505 327.32 90.1824C321.358 88.692 321.345 82.5909 321.345 82.5909Z" fill="#FFCC9C"/>
<path d="M321.345 82.5909C321.345 82.5909 333.268 83.5845 324.822 65.2026C314.721 68.3491 297.597 77.7222 309.918 90.043C322.239 102.364 326.823 95.1505 327.32 90.1824C321.358 88.692 321.345 82.5909 321.345 82.5909Z" fill="url(#paint9_linear)"/>
<path d="M315.88 81.5972C315.88 81.5972 320.186 82.5908 321.345 82.5908C321.345 83.5844 321.842 85.0748 321.842 85.0748C319.358 84.578 316.759 83.5628 315.88 81.5972Z" fill="#EAB07C"/>
<path d="M325.319 70.6673C326.909 69.0775 325.65 66.3617 324.822 65.2024C318.364 57.2535 309.421 60.7312 305.447 71.6609C301.473 82.5907 296.008 79.6099 289.549 80.6035C283.091 81.5971 288.555 89.0492 287.065 96.5013C285.574 103.953 275.961 103.488 272.161 105.444C262.238 110.551 274.645 157.112 287.065 122.335C299.485 87.5588 301.472 90.5396 309.421 90.0428C317.37 89.546 311.409 82.5907 314.389 78.6162C317.37 74.6418 323.332 72.6545 325.319 70.6673Z" fill="#343434"/>
<path d="M419.87 169.175C419.87 170.122 419.307 171.078 418.166 171.996C417.028 172.912 415.36 173.752 413.269 174.464C409.088 175.888 403.291 176.774 396.87 176.774C390.45 176.774 384.653 175.888 380.472 174.464C378.38 173.752 376.713 172.912 375.575 171.996C374.434 171.078 373.871 170.122 373.871 169.175C373.871 168.228 374.434 167.272 375.575 166.354C376.713 165.438 378.38 164.598 380.472 163.886C384.653 162.462 390.45 161.576 396.87 161.576C403.291 161.576 409.088 162.462 413.269 163.886C415.36 164.598 417.028 165.438 418.166 166.354C419.307 167.272 419.87 168.228 419.87 169.175Z" fill="white" stroke="black" stroke-width="0.7"/>
<path d="M418.877 167.685C418.877 168.56 418.345 169.45 417.254 170.31C416.166 171.167 414.571 171.954 412.569 172.622C408.567 173.956 403.017 174.787 396.871 174.787C390.725 174.787 385.175 173.956 381.173 172.622C379.171 171.954 377.576 171.167 376.488 170.31C375.397 169.45 374.865 168.56 374.865 167.685C374.865 166.809 375.397 165.919 376.488 165.059C377.576 164.202 379.171 163.415 381.173 162.747C385.175 161.413 390.725 160.582 396.871 160.582C403.017 160.582 408.567 161.413 412.569 162.747C414.571 163.415 416.166 164.202 417.254 165.059C418.345 165.919 418.877 166.809 418.877 167.685Z" fill="white" stroke="black" stroke-width="0.7"/>
<path d="M359.96 92.6792C359.96 91.7679 360.699 91.0292 361.61 91.0292H427.144C429.712 91.0292 431.794 93.1111 431.794 95.6792V138.341C431.794 140.909 429.712 142.991 427.144 142.991H361.61C360.699 142.991 359.96 142.252 359.96 141.341V92.6792Z" fill="white" stroke="black" stroke-width="0.7"/>
<path d="M359.96 92.0986C359.96 91.508 360.439 91.0292 361.03 91.0292C362.796 91.0292 364.228 92.4613 364.228 94.2278V139.792C364.228 141.559 362.796 142.991 361.03 142.991C360.439 142.991 359.96 142.512 359.96 141.921V92.0986Z" fill="white" stroke="black" stroke-width="0.7"/>
<path d="M392.666 125.397C392.704 124.515 393.431 123.819 394.314 123.819H403.374C404.816 123.819 405.993 124.97 406.024 126.411L406.931 168.161C406.939 168.525 406.646 168.825 406.282 168.825H391.457C391.086 168.825 390.791 168.517 390.807 168.147L392.666 125.397Z" fill="white" stroke="black" stroke-width="0.7"/>
<path d="M392.029 124.902C392.046 124.299 392.54 123.819 393.144 123.819C394.177 123.819 395.01 124.666 394.992 125.699L394.252 168.825H391.441C391.075 168.825 390.781 168.523 390.791 168.156L392.029 124.902Z" fill="white" stroke="black" stroke-width="0.7"/>
<line x1="390.412" y1="107.22" x2="406.31" y2="107.22" stroke="black" stroke-width="0.7"/>
<line x1="390.412" y1="110.201" x2="406.31" y2="110.201" stroke="black" stroke-width="0.7"/>
<line x1="390.412" y1="113.182" x2="406.31" y2="113.182" stroke="black" stroke-width="0.7"/>
<g style="mix-blend-mode:multiply">
<path d="M418.731 91.1758H361.101L360.107 92.6662V130.424V141.85L360.604 142.844H391.903L391.406 160.729L385.445 161.722L379.98 163.213L375.508 166.194L374.018 168.678L374.515 170.665L376.005 172.155L379.483 174.143L384.451 175.136L390.413 176.13L395.878 176.627L402.336 176.13L409.788 175.136L417.737 172.155L419.228 170.168V168.678L417.24 165.2L411.775 162.716L406.807 161.722L406.311 142.844H425.686L428.17 142.347L429.66 141.85L431.151 139.863L431.648 137.876V132.411V102.602L429.164 101.609L424.196 98.1311L420.718 94.1566L418.731 91.1758Z" fill="#E4E4E4"/>
</g>
<g style="mix-blend-mode:multiply">
<path d="M363.088 92.1697L361.101 91.6729L360.107 92.1697V93.1633V115.023V142.347L362.095 142.844L363.585 141.354L364.082 139.762V95.1505L363.585 93.1633L363.088 92.1697Z" fill="#C4C4C4"/>
</g>
<circle cx="439.1" cy="81.7364" r="22.5031" fill="white" stroke="black" stroke-width="0.7"/>
<path fill-rule="evenodd" clip-rule="evenodd" d="M439.1 89.6854C445.136 89.6854 450.029 85.6817 450.029 80.7428C450.029 75.804 445.136 71.8003 439.1 71.8003C433.063 71.8003 428.17 75.804 428.17 80.7428C428.17 83.8445 430.1 86.5774 433.031 88.1813C433.822 90.8021 432.641 93.163 432.641 93.163C432.641 93.163 436.585 91.8485 437.888 89.631C438.286 89.6669 438.69 89.6854 439.1 89.6854Z" fill="#FF9900"/>
<path d="M433.031 88.1813L433.366 88.0802L433.325 87.9431L433.199 87.8743L433.031 88.1813ZM432.641 93.163L432.328 93.0065L431.95 93.7623L432.752 93.4951L432.641 93.163ZM437.888 89.631L437.919 89.2824L437.698 89.2625L437.586 89.4537L437.888 89.631ZM449.679 80.7428C449.679 85.426 445.012 89.3354 439.1 89.3354V90.0354C445.26 90.0354 450.379 85.9373 450.379 80.7428H449.679ZM439.1 72.1503C445.012 72.1503 449.679 76.0597 449.679 80.7428H450.379C450.379 75.5483 445.26 71.4503 439.1 71.4503V72.1503ZM428.52 80.7428C428.52 76.0597 433.188 72.1503 439.1 72.1503V71.4503C432.939 71.4503 427.82 75.5483 427.82 80.7428H428.52ZM433.199 87.8743C430.353 86.3171 428.52 83.6888 428.52 80.7428H427.82C427.82 84.0002 429.846 86.8376 432.863 88.4884L433.199 87.8743ZM432.696 88.2824C433.069 89.5191 432.979 90.7012 432.79 91.5818C432.697 92.0209 432.579 92.3812 432.486 92.6303C432.439 92.7548 432.399 92.8511 432.37 92.9152C432.356 92.9473 432.345 92.9712 432.338 92.9866C432.334 92.9943 432.331 92.9999 432.33 93.0032C432.329 93.0049 432.328 93.006 432.328 93.0065C432.328 93.0068 432.328 93.0069 432.328 93.0069C432.328 93.0069 432.328 93.0069 432.328 93.0068C432.328 93.0068 432.328 93.0067 432.328 93.0067C432.328 93.0066 432.328 93.0065 432.641 93.163C432.954 93.3195 432.954 93.3194 432.954 93.3193C432.954 93.3192 432.955 93.3191 432.955 93.319C432.955 93.3188 432.955 93.3185 432.955 93.3182C432.955 93.3177 432.956 93.3169 432.956 93.3161C432.957 93.3143 432.958 93.312 432.959 93.3091C432.962 93.3034 432.966 93.2953 432.971 93.2851C432.981 93.2646 432.994 93.2353 433.011 93.1977C433.044 93.1225 433.089 93.0139 433.141 92.876C433.244 92.6005 433.373 92.2068 433.475 91.7281C433.679 90.773 433.784 89.4643 433.366 88.0802L432.696 88.2824ZM432.641 93.163C432.752 93.4951 432.752 93.495 432.752 93.495C432.752 93.495 432.752 93.4949 432.752 93.4949C432.753 93.4948 432.753 93.4947 432.753 93.4946C432.754 93.4944 432.755 93.4941 432.756 93.4937C432.758 93.493 432.761 93.4919 432.765 93.4905C432.774 93.4877 432.786 93.4836 432.801 93.4782C432.832 93.4675 432.876 93.4518 432.933 93.431C433.047 93.3895 433.21 93.328 433.409 93.2474C433.807 93.0863 434.352 92.8479 434.939 92.5382C436.098 91.9273 437.486 91.0065 438.19 89.8083L437.586 89.4537C436.987 90.4731 435.752 91.3183 434.613 91.919C434.051 92.2151 433.529 92.4439 433.147 92.5985C432.956 92.6758 432.8 92.7344 432.693 92.7734C432.64 92.7929 432.598 92.8076 432.571 92.8172C432.557 92.822 432.547 92.8256 432.54 92.8279C432.536 92.829 432.534 92.8299 432.532 92.8304C432.532 92.8306 432.531 92.8308 432.531 92.8309C432.531 92.831 432.531 92.831 432.531 92.831C432.531 92.831 432.531 92.831 432.531 92.831C432.531 92.831 432.531 92.831 432.641 93.163ZM439.1 89.3354C438.701 89.3354 438.307 89.3174 437.919 89.2824L437.856 89.9796C438.265 90.0165 438.68 90.0354 439.1 90.0354V89.3354Z" fill="black"/>
<rect x="77.7738" y="233.116" width="67.8594" height="67.8594" rx="13.65" fill="white" stroke="black" stroke-width="0.7"/>
<path d="M128.201 266.899H124.994" stroke="black" stroke-width="0.7" stroke-linecap="round" stroke-linejoin="round"/>
<path d="M126.444 272.146H124.141" stroke="black" stroke-width="0.7" stroke-miterlimit="10" stroke-linecap="round" stroke-linejoin="round"/>
<path d="M103.718 279.085C113.041 282.267 124.141 282.072 124.141 282.072C128.4 282.072 127.495 277.393 124.416 277.393H123.188" stroke="black" stroke-width="0.7" stroke-linecap="round" stroke-linejoin="round"/>
<path d="M103.718 263.24C103.718 263.24 112.508 256.33 111.877 249.102C111.399 243.619 121.578 247.813 115.912 261.653H128.473C131.976 261.653 131.966 266.9 128.473 266.9H128.201C131.733 266.9 131.64 272.146 128.201 272.146H126.445C129.947 272.146 129.938 277.393 126.445 277.393L124.416 277.393" stroke="black" stroke-width="0.7" stroke-linecap="round" stroke-linejoin="round"/>
<path d="M103.717 261.619H93.3037V282.447H103.717V261.619Z" stroke="black" stroke-width="0.7" stroke-linecap="round" stroke-linejoin="round"/>
<g style="mix-blend-mode:multiply">
<path fill-rule="evenodd" clip-rule="evenodd" d="M275.133 7.91439C254.764 3.93992 241.878 5.56529 235.825 9.84952C224.497 17.8672 224.888 35.7639 235.709 44.0244C247.69 53.1699 266.966 49.1434 280.895 49.1494C283.787 52.1535 289.54 57.5951 298.259 61.4516C298.259 55.1111 287.354 44.3973 284.275 41.2005H249.476C232.666 39.5919 231.791 18.2462 246.258 13.2782C255.141 11.2909 270.662 9.90159 275.133 7.91439Z" fill="#E0E0E0" fill-opacity="0.95"/>
</g>
<path fill-rule="evenodd" clip-rule="evenodd" d="M182.251 15.1648C183.897 12.9697 187.011 12.5249 189.206 14.1712C190.203 14.9183 191.332 15.8748 192.338 16.9317C192.712 17.3246 193.133 17.7958 193.543 18.3329C194.917 16.3074 197.61 15.5581 199.862 16.6771C203.4 18.4345 204.964 21.8121 205.671 24.5437C206.395 27.3437 206.482 30.4097 206.365 33.0269C206.245 35.7001 205.896 38.2139 205.586 40.0347C205.571 40.1189 205.557 40.2017 205.543 40.2831C208.576 43.5935 210.737 47.9096 212.21 52.3442C214.059 57.9082 214.996 64.171 215.041 70.1345C215.086 76.0586 214.252 82.0197 212.288 86.8751C210.856 90.4173 208.564 93.9331 205.104 95.9911V101.178L210.965 110.555C221.108 114.827 231.326 119.135 241.065 124.284C246.489 127.151 251.123 131.061 253.584 136.869C255.576 141.57 256.536 148.31 255.766 159.096C254.343 179.017 251.465 233.003 226.527 240.06L222.548 256.009C223.174 262.795 234.416 291.39 225.97 294.371C218.518 283.938 213.638 266.203 213.088 261.204C205.567 262.133 165.354 263.303 154.927 258.104C193.176 255.354 210.569 255.63 213.523 251.136L216.317 239.934C212.333 238.914 207.872 236.816 202.822 233.407C196.856 229.38 155.92 188.551 146.637 169.175C168.822 181.777 194.903 231.78 222.305 230.743C246.415 229.83 247.721 171.195 248.823 155.761C250.679 129.782 227.928 124.643 206.098 115.52L200.136 104.093L195.168 88.6338C204.139 86.7495 207.153 77.8143 207.092 69.6397C207.017 59.7455 202.123 43.886 194.574 43.886L195.304 40.8396L195.304 40.8381L195.304 40.8368L195.305 40.8351L195.309 40.8161C195.314 40.7936 195.323 40.7553 195.335 40.7021C195.359 40.5957 195.396 40.4303 195.441 40.2134C195.532 39.779 195.658 39.1422 195.791 38.3635C196.059 36.791 196.343 34.711 196.439 32.5829C196.536 30.3987 196.42 28.4559 196.051 27.0321C195.772 25.9502 195.475 25.6207 195.407 25.5582C195.373 25.5411 195.34 25.5236 195.306 25.5058C194.92 26.7776 194.155 27.8579 193.146 28.6636C191.103 30.2967 188.388 30.5658 186.226 30.5658C183.482 30.5658 181.258 28.3415 181.258 25.5977C181.258 24.114 181.908 22.7821 182.939 21.8718C181.012 20.1754 180.684 17.2539 182.251 15.1648ZM187.61 20.518C187.61 20.518 187.604 20.5202 187.59 20.5237C187.603 20.5196 187.61 20.518 187.61 20.518ZM97.2971 42.4892C102.762 43.4828 104.906 107.419 104.368 121.599C104.258 124.51 104.071 127.08 103.758 129.023C103.607 129.962 103.388 131.01 103.025 131.948C102.846 132.411 102.545 133.078 102.038 133.733C101.542 134.372 100.531 135.402 98.8716 135.771C97.9005 135.986 96.5329 136.058 95.3499 136.099C93.9973 136.146 92.298 136.164 90.3644 136.162C86.4896 136.158 81.5255 136.07 76.2078 135.937C70.487 135.794 46.126 135.392 40.6654 129.72C41.7649 128.082 70.6836 125.86 76.4559 126.004C81.745 126.136 86.6177 126.222 90.3751 126.226C91.8167 126.228 93.0725 126.217 94.1125 126.194C94.2503 124.926 94.3619 123.264 94.4394 121.222C94.9832 106.891 94.8131 56.3998 97.2971 42.4892ZM452.846 63.4845C476.342 78.0431 462.628 109.255 437.61 109.399V139.367C437.61 140.963 437.118 143.053 435.736 144.913C434.228 146.942 431.854 148.427 428.719 148.776C426.581 149.013 422.497 149.045 418.596 149.017C416.635 149.003 414.625 148.972 412.77 148.934V158.639C422.651 161.057 431.781 172.442 418.069 178.501C408.943 182.534 363.282 183.807 372.957 170.262C374.552 168.029 377.655 167.512 379.887 169.107C389.189 175.751 404.059 173.805 414.033 169.421C410.468 167.979 406.607 167.562 402.834 167.003V124.959C402.834 122.215 405.058 119.991 407.802 119.991C410.286 120.985 412.77 134.305 412.77 138.996C414.642 139.034 416.684 139.067 418.668 139.081C422.733 139.111 426.184 139.06 427.622 138.9C427.64 138.898 427.658 138.896 427.674 138.894L428.719 100.616C445.334 102.907 466.77 88.348 452.147 70.4755C450.41 68.3519 450.723 65.2219 452.846 63.4845ZM323.314 63.7833C325.821 62.6689 328.757 63.7982 329.872 66.3055C334.127 75.88 330.119 86.7539 318.567 87.1982C315.826 87.3036 319.972 84.9755 319.867 82.2338C324.835 81.737 327.813 76.762 323.841 67.8264C322.727 65.3191 320.807 64.8976 323.314 63.7833ZM164.192 66.623C166.777 65.7038 169.618 67.0544 170.538 69.6397C171.989 73.7222 173.559 80.1637 173.406 86.2945C173.26 92.1867 171.364 99.8817 163.626 102.783C157.627 105.033 146.94 102.369 152.94 100.119C176.29 98.1316 161.882 73.7881 164.192 66.623ZM34.6994 104.093C39.1707 103.597 53.0813 101.609 47.1196 86.7051C44.6355 92.6667 30.2281 91.6731 34.6994 104.093ZM405.815 101.609C409.789 101.112 409.578 113.205 408.795 117.507L390.745 118.498C388.003 118.407 385.854 116.109 385.945 113.367C386.053 110.125 396.975 111.4 401.343 111.545L400.846 106.577C400.846 103.834 403.071 101.609 405.815 101.609ZM341.726 123.966C353.153 133.902 357.57 136.539 360.896 140.159C361.798 138.757 363.385 137.842 365.174 137.877C370.716 137.986 395.382 135.392 395.381 143.438C391.904 147.316 373.577 147.98 368.299 147.876C368.65 148.214 368.969 148.512 369.254 148.77C369.55 149.037 369.787 149.24 369.969 149.387C370.131 149.518 370.204 149.568 370.204 149.568C370.204 149.568 370.2 149.565 370.193 149.561C372.615 151.075 374.562 153.406 375.912 155.311C377.317 157.295 378.411 159.301 379.026 160.635C380.176 163.126 377.504 164.815 375.012 165.965C368.956 161.951 364.579 156.755 360.014 153.664C354.758 148.389 342.49 130.706 341.726 123.966ZM42.3511 149.303C44.4126 146.554 55.9417 169.961 62.7919 177.839C72.3251 188.802 77.9902 191.451 83.1475 191.53C83.2533 191.493 83.5182 191.395 83.9719 191.159C84.8117 190.723 85.9176 190.017 87.2754 189.019C89.9799 187.031 93.2662 184.198 96.77 180.939C100.901 177.096 117.169 162.717 122.99 161.023C126.609 168.181 107.497 184.531 103.538 188.214C99.9204 191.578 96.3135 194.707 93.1598 197.025C91.5885 198.18 90.0241 199.212 88.5532 199.976C87.2307 200.664 85.3719 201.468 83.3865 201.468C73.7042 201.468 65.4856 196.079 55.294 184.358C49.0716 177.203 39.3703 153.277 42.3511 149.303ZM298.397 161.226C305.401 162.7 311.421 164.152 317.121 167.677C320.833 169.973 321.909 170.796 325.828 172.756C328.549 174.116 332.446 173.873 333.777 173.15C338.428 170.62 339.739 164.207 337.752 162.717C329.803 169.672 327.454 161.385 320.432 158.194L319.452 157.749H318.376C313.032 157.749 305.03 157.263 298.397 155.868C295.046 155.163 290.992 154.241 289.231 153.277C281.225 151.24 284.013 158.2 298.397 161.226ZM447.546 162.22C451.521 161.723 455.783 167.925 456.505 172.487C458.696 170.466 462.451 169.175 464.646 170.023C469.903 177.621 468.355 191.953 466.457 199.034C466.592 202.264 466.548 206.995 466.023 211.795C465.473 216.823 464.316 222.76 461.695 226.954C458.222 232.512 452.353 233.21 448 232.622C443.665 232.037 439.525 230.109 436.994 228.552C434.657 227.114 433.928 224.054 435.366 221.717C436.804 219.38 439.865 218.652 442.201 220.09C443.976 221.182 446.791 222.433 449.329 222.776C451.848 223.116 452.769 222.489 453.27 221.688C454.623 219.522 455.62 215.523 456.146 210.714C456.65 206.103 456.649 201.51 456.497 198.762L456.451 197.945L456.67 197.157C457.459 194.319 458.526 189.805 459.151 185.587C459.186 185.349 459.22 185.114 459.251 184.882C458.54 185.968 456.691 186.595 456.146 187.557L449.037 194.015L448.057 185.941C447.647 180.474 443.958 165.809 447.546 162.22ZM293.004 178.579C294.944 176.639 298.09 176.639 300.03 178.579C301.111 179.66 302.442 181.441 303.26 183.638C304.096 185.887 304.55 189.058 302.948 192.263C302.874 192.409 302.797 192.567 302.714 192.735C301.79 194.616 300.246 197.76 297.18 200.354C293.711 203.289 288.83 205.157 281.811 205.438C279.114 205.546 276.819 205.411 274.957 204.935C273.218 204.491 270.837 203.476 269.631 200.995C268.364 198.391 269.236 195.97 269.918 194.723C270.629 193.422 271.627 192.402 272.442 191.713C274.537 189.941 277.671 190.202 279.444 192.297C280.24 193.238 280.626 194.389 280.619 195.533C280.868 195.529 281.133 195.521 281.414 195.51C286.815 195.294 289.387 193.932 290.762 192.769C292.196 191.555 292.9 190.145 293.91 188.12C293.96 188.021 294.01 187.921 294.061 187.819C294.073 187.793 294.084 187.772 294.083 187.696C294.082 187.594 294.056 187.397 293.947 187.104C293.839 186.811 293.674 186.499 293.476 186.202C293.275 185.9 293.092 185.693 293.004 185.605C291.064 183.665 291.064 180.519 293.004 178.579ZM277.221 195.247C277.221 195.247 277.241 195.253 277.274 195.268C277.236 195.255 277.221 195.247 277.221 195.247ZM351.088 189.107C362.592 197.493 368.658 202.835 372.032 206.932C373.721 209.095 362.767 207.23 360.605 208.92C355.861 208.327 352.656 196.003 351.088 189.107ZM329.623 195.983L336.578 207.907C319.37 208.92 320.364 207.926 321.04 200.99C322.351 192.525 326.395 190.449 329.623 195.983ZM417.241 218.856C426.695 228.766 423.203 284.797 423.203 294.176C424.875 294.417 426.674 294.81 428.466 295.409C432.34 296.704 436.828 299.186 439.456 303.858C442.491 309.254 453.011 347.529 445.062 341.07C441.4 331.127 438.025 309.08 425.317 304.833C422.707 303.961 419.989 303.744 418.433 303.806L418.203 303.815L417.974 303.803C415.053 303.649 410.609 303.704 406.835 304.317C404.928 304.627 403.462 305.037 402.509 305.48C402.221 305.614 402.04 305.722 401.932 305.794C401.67 306.452 401.179 307.404 400.247 308.2C398.725 309.5 399.674 310.876 397.913 310.268C391.047 307.899 386.721 287.746 384.949 274.001C393.291 271.785 396.007 291.684 397.913 296.666C400.198 295.523 402.732 294.917 405.242 294.509C407.895 294.078 410.711 293.877 413.267 293.816C413.267 284.39 414.275 225.288 417.241 218.856ZM401.798 305.897C401.798 305.897 401.802 305.892 401.813 305.883C401.803 305.892 401.798 305.897 401.798 305.897ZM123.058 233.407C135.879 230.942 149.448 231.314 148.963 247.324C148.569 260.308 148.799 277.725 148.964 284.816L148.97 285.064L148.951 285.312C148.74 288.056 147.834 292.128 145.759 295.964C143.664 299.837 140.123 303.899 134.495 305.588C131.916 306.361 128.485 306.742 124.956 306.935C121.327 307.134 117.216 307.151 113.089 307.063C104.878 306.887 96.3609 306.288 90.9651 305.784C86.7987 305.538 80.9878 303.693 76.8239 298.732C73.0347 294.217 72.3181 273.889 78.4184 263.587C78.7766 274.883 79.8215 286.848 84.4347 292.344C86.461 294.759 89.4774 295.756 91.5966 295.868L91.6981 295.873L91.7993 295.883C97.0072 296.371 105.331 296.958 113.301 297.129C117.288 297.214 121.126 297.194 124.412 297.014C127.796 296.829 130.245 296.489 131.64 296.071C133.961 295.374 135.719 293.64 137.019 291.237C138.278 288.909 138.868 286.359 139.024 284.773C138.858 277.455 138.635 260.105 139.031 247.023C139.108 244.479 138.603 242.916 138.044 241.953C134.436 235.736 130.086 234.754 123.058 233.407ZM286.739 234.554C288.495 232.446 291.628 232.161 293.736 233.918C299.355 238.601 298.045 245.503 296.592 250.052C295.795 252.548 294.69 255.152 293.657 257.571L293.499 257.941C292.488 260.305 291.536 262.533 290.773 264.713C289.167 269.302 288.869 276.469 289.04 284.829C289.092 287.336 289.187 289.994 289.283 292.649C289.422 296.542 289.562 300.426 289.562 303.81C289.562 305.895 290.765 307.585 294.462 308.906C298.157 310.226 302.88 310.501 306.115 310.28L306.284 310.268C315.775 310.268 367.56 311.262 382.465 315.236C369.548 320.701 316.078 320.205 306.616 320.205C302.562 320.461 296.456 320.169 291.119 318.263C285.708 316.33 279.626 312.058 279.626 303.81C279.626 301.851 279.581 299.832 279.516 297.746C279.081 298.269 278.649 298.793 278.223 299.314C276.556 301.356 275.032 303.303 273.846 304.95C272.567 306.727 271.964 307.774 271.818 308.139C270.467 311.517 267.063 318.802 264.69 323.792C266.064 325.696 267.21 328.137 267.676 331.027C268.475 335.983 267.183 341.675 262.715 347.554C261.055 349.739 257.938 350.164 255.754 348.504C253.569 346.843 253.144 343.727 254.804 341.542C257.888 337.485 258.169 334.483 257.867 332.608C257.535 330.549 256.385 329.13 255.681 328.575L252.556 326.108L254.283 322.521C256.462 317.996 261.08 308.231 262.593 304.449C263.242 302.826 264.525 300.892 265.782 299.145C267.133 297.269 268.797 295.148 270.528 293.029C273.434 289.47 276.63 285.792 279.074 283.059C278.98 275.451 280.507 267.58 282.606 261.581C285.233 254.076 295.026 244.69 286.739 234.554ZM112.498 243.357C114.606 241.601 117.739 241.886 119.496 243.993C121.112 245.933 123.131 249.241 123.75 253.061C123.995 254.574 124.013 256.179 123.709 257.777C125.138 257.457 126.561 257.109 127.834 256.775L132.206 255.63L133.758 259.874C135.13 263.623 136.588 269.564 136.117 275.037C135.878 277.804 135.109 280.887 133.153 283.474C131.079 286.216 128.019 287.935 124.197 288.376C115.586 289.37 108.799 287.959 104.586 286.211C103.97 286.512 103.317 286.781 102.644 287.015C100.269 287.842 97.1829 288.409 93.3226 288.409C90.5788 288.409 88.3546 286.185 88.3546 283.441C88.3546 280.697 90.5788 278.473 93.3226 278.473C96.2189 278.473 98.184 278.046 99.3778 277.631C100.143 277.365 100.507 277.136 100.608 277.073L103.345 273.789L107.08 276.375C108.058 277.052 113.681 279.587 123.058 278.505C124.403 278.35 124.92 277.888 125.228 277.481C125.653 276.918 126.071 275.883 126.217 274.183C126.394 272.133 126.124 269.755 125.642 267.526C123.017 268.108 120.243 268.629 118.03 268.848C117.108 268.939 116.113 268.996 115.185 268.943C114.721 268.916 114.15 268.856 113.552 268.708C113.01 268.573 112.077 268.28 111.181 267.563C110.138 266.73 109.225 265.364 109.144 263.587C109.074 262.049 109.666 260.881 110.055 260.264C110.8 259.081 111.91 258.184 112.741 257.575C113.492 257.024 113.751 256.552 113.866 256.23C113.997 255.865 114.057 255.358 113.942 254.651C113.692 253.105 112.73 251.396 111.862 250.354C110.106 248.247 110.391 245.114 112.498 243.357ZM281.116 245.187C280.122 251.148 268.696 272.511 264.702 271.337C262.332 269.955 261.531 266.913 262.914 264.543L268.199 254.626C269.581 252.256 278.746 243.804 281.116 245.187Z" fill="#E0E0E0" fill-opacity="0.6" style="mix-blend-mode:multiply"/>
<g style="mix-blend-mode:multiply">
<path d="M228.454 310.765L220.008 325.669C231.534 341.567 250.313 344.548 258.262 344.051C261.74 337.592 265.714 328.65 265.714 328.65C261.74 331.134 231.957 320.113 228.454 310.765Z" fill="#D1F1FF"/>
</g>
<g style="mix-blend-mode:multiply">
<path d="M109.717 257.11C108.922 258.302 105.742 261.25 104.252 262.575L103.755 278.969L114.685 281.453L122.634 282.447L125.614 281.95L126.608 280.956V278.969L125.614 277.479L127.602 276.982L129.092 275.492V274.001L128.098 272.511L130.086 271.517L130.582 270.027V268.039L129.092 267.046L130.582 266.052L131.079 264.562L130.086 262.078L128.595 261.581H116.175C116.672 259.097 117.566 253.433 117.169 250.651C116.672 247.174 114.188 246.677 112.697 246.677C111.207 246.677 111.704 250.154 111.704 251.645C111.704 253.135 110.71 255.619 109.717 257.11Z" fill="#FFCC9C"/>
</g>
<g style="mix-blend-mode:multiply">
<path d="M103.754 282.447V262.078H103.257H93.3213V282.447H103.754Z" fill="#D1F1FF"/>
</g>
<defs>
<linearGradient id="paint0_linear" x1="181.464" y1="102.165" x2="181.464" y2="264.561" gradientUnits="userSpaceOnUse">
<stop stop-color="#DCF5FF"/>
<stop offset="1" stop-color="#AEDFF4"/>
</linearGradient>
<linearGradient id="paint1_linear" x1="225.974" y1="129.837" x2="220.008" y2="219.849" gradientUnits="userSpaceOnUse">
<stop stop-color="#D2F0FD"/>
<stop offset="1" stop-color="#E6F7FF"/>
</linearGradient>
<linearGradient id="paint2_linear" x1="153.931" y1="101.609" x2="80.9007" y2="187.06" gradientUnits="userSpaceOnUse">
<stop stop-color="#DFF5FF"/>
<stop offset="1" stop-color="#C8EEFF"/>
</linearGradient>
<linearGradient id="paint3_linear" x1="169.83" y1="72.7941" x2="176.288" y2="71.8005" gradientUnits="userSpaceOnUse">
<stop stop-color="#EAB07C" stop-opacity="0.52"/>
<stop offset="1" stop-color="#EAB07C" stop-opacity="0"/>
</linearGradient>
<linearGradient id="paint4_linear" x1="200.632" y1="69.3162" x2="194.173" y2="70.3098" gradientUnits="userSpaceOnUse">
<stop stop-color="#EEA562"/>
<stop offset="1" stop-color="#EAB17C" stop-opacity="0"/>
</linearGradient>
<linearGradient id="paint5_linear" x1="173.308" y1="152.283" x2="164.365" y2="159.238" gradientUnits="userSpaceOnUse">
<stop stop-color="#DA995F"/>
<stop offset="1" stop-color="#EAB07C" stop-opacity="0"/>
</linearGradient>
<linearGradient id="paint6_linear" x1="337.753" y1="114.029" x2="357.625" y2="128.436" gradientUnits="userSpaceOnUse">
<stop stop-color="#C0E5F5"/>
<stop offset="1" stop-color="#DFF6FF"/>
</linearGradient>
<linearGradient id="paint7_linear" x1="305.957" y1="113.035" x2="341.727" y2="117.507" gradientUnits="userSpaceOnUse">
<stop stop-color="#BFE4F3"/>
<stop offset="1" stop-color="#E3F7FF"/>
</linearGradient>
<linearGradient id="paint8_linear" x1="299.002" y1="80.743" x2="285.589" y2="157.251" gradientUnits="userSpaceOnUse">
<stop stop-color="#BFE4F4"/>
<stop offset="1" stop-color="#E6F8FF"/>
</linearGradient>
<linearGradient id="paint9_linear" x1="309.931" y1="84.2207" x2="316.887" y2="86.7048" gradientUnits="userSpaceOnUse">
<stop stop-color="#EAB07C"/>
<stop offset="1" stop-color="#EAB07C" stop-opacity="0"/>
</linearGradient>
</defs>
</svg>
