<svg width="203" height="48" viewBox="0 0 203 48" fill="none" xmlns="http://www.w3.org/2000/svg">
<path d="M57.8061 32.933C64.5478 32.933 69.5794 28.0987 69.5794 20.9953C69.5794 13.859 64.5478 9.05762 57.8061 9.05762C50.8014 9.05762 46 14.1221 46 20.9953C46 27.8685 50.8014 32.933 57.8061 32.933ZM57.8061 29.2168C53.235 29.2168 50.1108 25.5665 50.1108 20.9953C50.1108 16.4241 53.235 12.7738 57.8061 12.7738C62.1142 12.7738 65.4357 16.1939 65.4357 20.9953C65.4357 25.7638 62.1142 29.2168 57.8061 29.2168Z" fill="black"/>
<path d="M72.1416 39.1754H75.8249V30.7236L75.8906 30.6907C77.0745 32.1377 78.7517 32.927 80.9222 32.927C85.3947 32.927 88.7162 29.6713 88.7162 24.7055C88.7162 19.8712 85.3947 16.3853 80.9551 16.3853C78.8504 16.3853 77.0745 17.1416 75.8906 18.5229H75.8249V16.6155H72.1416V39.1754ZM80.3631 29.5726C77.7322 29.5726 75.6604 27.6323 75.6604 24.7383C75.6604 21.8772 77.5678 19.7068 80.3303 19.7068C82.8954 19.7068 84.9672 21.647 84.9672 24.7383C84.9672 27.5666 83.0598 29.5726 80.3631 29.5726Z" fill="black"/>
<path d="M106.247 24.4424C106.247 19.7725 103.188 16.3853 98.6831 16.3853C93.9804 16.3853 90.626 19.7068 90.626 24.6397C90.626 29.6713 94.079 32.927 98.9462 32.927C102.399 32.927 104.405 31.6444 105.754 29.9015L103.188 27.6981C102.366 28.7176 101.051 29.5726 99.1435 29.5726C96.6441 29.5726 94.9012 28.1914 94.4408 25.8565H106.148C106.181 25.5934 106.247 25.0343 106.247 24.4424ZM98.6502 19.7068C100.755 19.7068 102.07 21.0222 102.531 22.9625H94.5065C95.0327 20.8578 96.6113 19.7068 98.6502 19.7068Z" fill="black"/>
<path d="M109.075 32.6639H112.758V24.6068C112.758 21.4497 114.403 19.7068 116.902 19.7068C119.105 19.7068 120.388 20.792 120.388 24.1793V32.6639H124.071V23.2256C124.071 18.3913 121.703 16.3853 118.185 16.3853C116.08 16.3853 114.14 17.2403 112.824 18.8188H112.758V16.6155H109.075V32.6639Z" fill="black"/>
<path d="M128.055 32.6661H135.586C143.084 32.6661 147.622 27.8976 147.622 21.0244C147.622 14.1183 142.886 9.31689 135.487 9.31689H128.055V32.6661ZM132.034 29.1144V12.8686H135.553C140.255 12.8686 143.511 16.2888 143.511 21.0244C143.511 25.6613 140.288 29.1144 135.355 29.1144H132.034Z" fill="black"/>
<path d="M156.927 32.927C159.163 32.927 160.873 32.072 162.025 30.5263L162.09 30.5592V32.6639H165.609V16.6155H161.926V18.5557L161.86 18.5886C160.709 17.1416 158.933 16.3853 156.894 16.3853C152.488 16.3853 149.166 19.8712 149.166 24.7055C149.166 29.6713 152.488 32.927 156.927 32.927ZM157.519 29.5726C154.79 29.5726 152.915 27.5666 152.915 24.7383C152.915 21.647 154.954 19.7068 157.519 19.7068C160.15 19.7068 162.09 21.8772 162.09 24.7383C162.09 27.6323 160.018 29.5726 157.519 29.5726Z" fill="black"/>
<path d="M171.33 14.2643C172.711 14.2643 173.829 13.1462 173.829 11.7978C173.829 10.4824 172.711 9.36426 171.33 9.36426C169.949 9.36426 168.863 10.4824 168.863 11.7978C168.863 13.1462 169.949 14.2643 171.33 14.2643ZM169.488 32.6805H173.171V16.6321H169.488V32.6805Z" fill="black"/>
<path d="M177.217 32.6639H180.9V25.0672C180.9 22.4363 182.479 20.4303 185.274 20.4303C185.537 20.4303 185.965 20.4631 186.392 20.496V16.3853H185.932C183.991 16.3853 182.215 17.339 180.966 19.0161H180.9V16.6155H177.217V32.6639Z" fill="black"/>
<path d="M190.372 39.181H194.187L203 16.6211H199.218L195.107 27.3749H195.042L190.635 16.6211H186.688L193.266 31.7816L190.372 39.181Z" fill="black"/>
<path fill-rule="evenodd" clip-rule="evenodd" d="M29.8341 32.8188V32.7704V20.8462H0.0234375V32.7704C0.0234375 40.9977 6.70198 47.6762 14.9283 47.6762C23.1394 47.6762 29.8079 41.0239 29.8341 32.8188ZM23.8724 26.8084H5.98516V32.7704C5.98516 37.7063 9.9923 41.7145 14.9283 41.7145C19.8642 41.7145 23.8724 37.7063 23.8724 32.7704V26.8084Z" fill="black"/>
<path fill-rule="evenodd" clip-rule="evenodd" d="M5.96247 14.906C5.96247 12.4415 6.9622 10.2082 8.57711 8.59008C9.13288 8.03304 9.76211 7.54818 10.4482 7.15212C11.7603 6.39513 13.2832 5.96265 14.9058 5.96265C16.5284 5.96265 18.0507 6.39513 19.3628 7.15212C20.0495 7.54818 20.6781 8.03304 21.2345 8.59008L25.4545 4.37841C24.5301 3.45213 23.4838 2.64658 22.3428 1.98797C20.153 0.724403 17.6131 0 14.9058 0C12.1979 0 9.65798 0.724403 7.46814 1.98797C6.32722 2.64658 5.28149 3.45213 4.3565 4.37841C1.66455 7.07547 0 10.7978 0 14.906H5.96247Z" fill="#9CC03F"/>
</svg>