<?xml version="1.0" encoding="UTF-8" standalone="no"?><!DOCTYPE svg PUBLIC "-//W3C//DTD SVG 1.1//EN" "http://www.w3.org/Graphics/SVG/1.1/DTD/svg11.dtd"><svg width="100%" height="100%" viewBox="0 0 1954 474" version="1.1" xmlns="http://www.w3.org/2000/svg" xmlns:xlink="http://www.w3.org/1999/xlink" xml:space="preserve" xmlns:serif="http://www.serif.com/" style="fill-rule:evenodd;clip-rule:evenodd;stroke-linejoin:round;stroke-miterlimit:2;"><rect id="OD-logo-WHITE" x="0.914" y="0.913" width="1952.44" height="472.205" style="fill:none;"/><clipPath id="_clip1"><rect x="0.914" y="0.913" width="1952.44" height="472.205"/></clipPath><g clip-path="url(#_clip1)"><g><path d="M530.763,333.385c66.082,0 115.402,-47.386 115.402,-117.014c0,-69.951 -49.32,-117.014 -115.402,-117.014c-68.661,-0 -115.725,49.642 -115.725,117.014c0,67.372 47.064,117.014 115.725,117.014Zm-0,-36.426c-44.807,0 -75.431,-35.781 -75.431,-80.588c0,-44.807 30.624,-80.588 75.431,-80.588c42.228,-0 74.786,33.524 74.786,80.588c-0,46.741 -32.558,80.588 -74.786,80.588Z" style="fill:#fff;fill-rule:nonzero;"/><path d="M671.309,394.632l36.104,0l-0,-82.845l0.644,-0.322c11.605,14.184 28.045,21.92 49.32,21.92c43.84,0 76.398,-31.913 76.398,-80.588c0,-47.386 -32.558,-81.556 -76.075,-81.556c-20.631,0 -38.038,7.415 -49.643,20.953l-0.644,0l-0,-18.696l-36.104,-0l0,221.134Zm80.588,-94.127c-25.788,0 -46.096,-19.019 -46.096,-47.386c-0,-28.045 18.696,-49.32 45.774,-49.32c25.144,0 45.452,19.019 45.452,49.32c-0,27.723 -18.697,47.386 -45.13,47.386Z" style="fill:#fff;fill-rule:nonzero;"/><path d="M1005.59,250.218c0,-45.774 -29.979,-78.977 -74.141,-78.977c-46.096,0 -78.976,32.558 -78.976,80.911c-0,49.32 33.847,81.233 81.555,81.233c33.847,0 53.511,-12.572 66.727,-29.656l-25.144,-21.598c-8.058,9.993 -20.952,18.374 -39.649,18.374c-24.499,0 -41.584,-13.539 -46.096,-36.426l114.757,0c0.323,-2.579 0.967,-8.059 0.967,-13.861Zm-74.463,-46.419c20.63,0 33.524,12.894 38.037,31.913l-78.654,0c5.158,-20.63 20.631,-31.913 40.617,-31.913Z" style="fill:#fff;fill-rule:nonzero;"/><path d="M1033.31,330.806l36.103,0l0,-78.976c0,-30.946 16.118,-48.031 40.617,-48.031c21.597,0 34.169,10.638 34.169,43.84l0,83.167l36.104,0l-0,-92.515c-0,-47.386 -23.21,-67.05 -57.701,-67.05c-20.631,0 -39.65,8.382 -52.544,23.855l-0.645,-0l0,-21.598l-36.103,-0l-0,157.308Z" style="fill:#fff;fill-rule:nonzero;"/><path d="M1219.31,330.806l73.818,0c73.497,0 117.982,-46.741 117.982,-114.113c-0,-67.694 -46.419,-114.757 -118.949,-114.757l-72.851,-0l-0,228.87Zm39.004,-34.814l0,-159.242l34.492,-0c46.097,-0 78.01,33.524 78.01,79.943c-0,45.452 -31.591,79.299 -79.944,79.299l-32.558,0Z" style="fill:#fff;fill-rule:nonzero;"/><path d="M1502.34,333.385c21.92,0 38.682,-8.381 49.964,-23.532l0.645,0.323l0,20.63l34.492,0l-0,-157.308l-36.104,-0l0,19.019l-0.644,0.322c-11.283,-14.183 -28.69,-21.598 -48.676,-21.598c-43.195,0 -75.753,34.17 -75.753,81.556c0,48.675 32.558,80.588 76.076,80.588Zm5.802,-32.88c-26.755,0 -45.129,-19.663 -45.129,-47.386c-0,-30.301 19.986,-49.32 45.129,-49.32c25.788,0 44.807,21.275 44.807,49.32c0,28.367 -20.308,47.386 -44.807,47.386Z" style="fill:#fff;fill-rule:nonzero;"/><path d="M1643.53,150.288c13.539,0 24.499,-10.96 24.499,-24.176c0,-12.894 -10.96,-23.854 -24.499,-23.854c-13.538,-0 -24.176,10.96 -24.176,23.854c-0,13.216 10.638,24.176 24.176,24.176Zm-18.051,180.518l36.103,0l0,-157.308l-36.103,-0l-0,157.308Z" style="fill:#fff;fill-rule:nonzero;"/><path d="M1701.23,330.806l36.103,0l0,-74.463c0,-25.789 15.473,-45.452 42.873,-45.452c2.579,-0 6.77,0.322 10.96,0.645l0,-40.295l-4.513,0c-19.019,0 -36.426,9.349 -48.675,25.789l-0.645,-0l0,-23.532l-36.103,-0l-0,157.308Z" style="fill:#fff;fill-rule:nonzero;"/><path d="M1830.17,394.632l37.393,0l86.391,-221.134l-37.071,-0l-40.294,105.409l-0.645,0l-43.195,-105.409l-38.683,-0l64.471,148.605l-28.367,72.529Z" style="fill:#fff;fill-rule:nonzero;"/></g><g><path d="M60.571,149.53c-0,-24.412 9.901,-46.528 25.897,-62.557c5.509,-5.52 11.738,-10.319 18.536,-14.242c12.998,-7.501 28.077,-11.784 44.149,-11.784c16.072,0 31.152,4.283 44.149,11.784c6.798,3.923 13.028,8.722 18.536,14.242l41.801,-41.716c-9.158,-9.177 -19.518,-17.153 -30.82,-23.675c-21.689,-12.517 -46.846,-19.69 -73.666,-19.69c-26.819,0 -51.977,7.173 -73.666,19.69c-11.302,6.522 -21.661,14.498 -30.819,23.675c-26.662,26.716 -43.153,63.584 -43.153,104.273l59.056,-0Z" style="fill:#fff;"/><path d="M296.987,326.936l0,-0.477l0,-118.11l-295.275,-0l-0,118.11c-0,81.484 66.154,147.638 147.638,147.638c81.32,-0 147.373,-65.89 147.637,-147.161Zm-59.055,-59.532l-177.165,-0l-0,59.055c-0,48.89 39.692,88.583 88.583,88.583c48.89,-0 88.582,-39.693 88.582,-88.583c0,0 0,-59.055 0,-59.055Z" style="fill:#fff;"/></g></g></svg>